<?xml version="1.0" encoding="utf-8"?>
<!-- Generator: Adobe Illustrator 26.1.0, SVG Export Plug-In . SVG Version: 6.00 Build 0)  -->
<svg version="1.1" id="Слой_1" xmlns="http://www.w3.org/2000/svg" xmlns:xlink="http://www.w3.org/1999/xlink" x="0px" y="0px"
	 viewBox="0 0 50 50" style="enable-background:new 0 0 50 50;" xml:space="preserve">
<style type="text/css">
	.st0{fill:#F44336;}
	.st1{fill:#FFFFFF;}
	.st2{fill:#3F51B5;}
</style>
<path class="st0" d="M45,53"/>
<path class="st0" d="M46.26,45.51c2.88-4.99,4.21-10.72,3.59-16.42c0-0.04-0.01-0.07-0.01-0.11c-0.54-4.93-1.61-9.38-2.92-12.78
	C44.31,6.88,35.57,0,25.15,0C15.5,0,7.29,5.91,4.06,14.2C2.49,16.86,1.18,20.67,0.53,25c-0.13,0.83-0.21,1.64-0.28,2.43
	C0.09,28.22,0.02,29.36,0,30.62c-0.08,4.99,1.27,9.9,3.81,14.24l2.49,4.24c0.71,1.22,2.52,1.22,3.23,0l2.55-4.34
	c0.71-1.22,2.52-1.22,3.23,0l2.55,4.34c0.71,1.22,2.52,1.22,3.23,0l2.55-4.34c0.71-1.22,2.52-1.22,3.23,0l2.55,4.34
	c0.71,1.22,2.52,1.22,3.23,0l2.55-4.34c0.71-1.22,2.52-1.22,3.23,0l2.53,4.31c0.72,1.22,2.53,1.22,3.24-0.01L46.26,45.51z"/>
<ellipse class="st1" cx="18.65" cy="19.75" rx="8.14" ry="10.7"/>
<ellipse class="st1" cx="40.04" cy="20.08" rx="7.67" ry="10.36"/>
<ellipse class="st2" cx="43.06" cy="21.44" rx="4.65" ry="4.5"/>
<ellipse class="st2" cx="22.13" cy="21.44" rx="4.65" ry="4.5"/>
</svg>
