<?xml version="1.0" encoding="utf-8"?>
<!-- Generator: Adobe Illustrator 26.1.0, SVG Export Plug-In . SVG Version: 6.00 Build 0)  -->
<svg version="1.1" id="Слой_1" xmlns="http://www.w3.org/2000/svg" xmlns:xlink="http://www.w3.org/1999/xlink" x="0px" y="0px"
	 viewBox="0 0 40 40" style="enable-background:new 0 0 40 40;" xml:space="preserve">
<style type="text/css">
	.st0{fill:#542331;}
	.st1{fill:#924259;}
	.st2{fill:#BC6D8E;}
	.st3{fill:#2A2D66;}
	.st4{fill:#FFFFFF;}
	.st5{fill:none;stroke:#961914;stroke-miterlimit:10;}
</style>
<g>
	<g>
		<g>
			<path class="st0" d="M40,19.9C40,8.9,31.1,0,20.1,0c-2.3,0-4.4,0.4-6.5,1.1c0.4,0,0.8,0,1.3,0.1c1.3,0.2,2.3,0.7,2.9,1
				c1,0.5,1.6,0.8,2.1,1.4c0.5,0.7,0.7,1.3,0.9,2.2c0.4,1.4,0.3,2.5,0.3,3.1c-0.1,1.4-0.4,1.6-0.3,2.7c0.1,0.7,0.3,2.1,0.8,2.1
				c0.7,0.1,0.7-3,2.9-4.4c1.2-0.8,3-1,3.9-0.2c0.8,0.7,0,1.7,0.6,3.8c0,0.1,0.8,2.8,3.1,4.2c0.9,0.6,1.1,0.4,2,1.1
				c0.5,0.4,1.7,1.3,2.1,2.9c0.1,0.2,0.5,2.1-0.6,3.6c-0.7,0.9-1.2,0.7-3.2,1.9c-1.2,0.7-2.7,1.6-3.7,3.1c-0.9,1.2-0.5,1.5-1.6,3.3
				c-0.6,1-1.3,2.2-2.7,3.3c-0.6,0.5-3,1.3-3.3,1.8c-0.1,0.1-0.2,0.3-0.2,0.3c0,0.1-0.1,0.3-0.1,0.6c0,0.1,0,0.2,0.2,0.4
				c0.2,0.3,0.6,0.3,0.8,0.4c0.2,0,0.4,0,0.5,0.1C32.3,38.4,40,30.1,40,19.9z"/>
		</g>
	</g>
	<path class="st1" d="M22.2,39.5c-0.2,0-0.5-0.1-0.8-0.4c-0.1-0.2-0.1-0.3-0.2-0.4c-0.1-0.3,0-0.5,0.1-0.6c0,0,0.1-0.2,0.2-0.3
		c0.3-0.5,2.8-1.3,3.3-1.8c1.4-1.1,2.1-2.3,2.7-3.3c1.1-1.9,0.7-2.1,1.6-3.3c1.1-1.5,2.6-2.4,3.7-3.1c1.9-1.1,2.5-1,3.2-1.9
		c1.1-1.5,0.6-3.3,0.6-3.6c-0.4-1.6-1.5-2.5-2.1-2.9c-0.9-0.7-1.1-0.5-2-1.1c-2.3-1.5-3.1-4.1-3.1-4.2c-0.6-2.1,0.2-3-0.6-3.8
		C28,8,26.1,8.3,24.9,9c-2.2,1.4-2.2,4.5-2.9,4.4c-0.5-0.1-1-1.3-1-2c-0.1-1.1,0.3-1.7,0.3-3c0-0.6,0.1-1.4-0.3-2.7
		c-0.2-0.9-0.4-1.5-0.9-2.2s-0.9-1.1-1.9-1.6c-0.6-0.3-1.6-0.8-2.9-1c-0.5-0.1-0.9-0.1-1.3-0.1C6.2,3.5,0.6,10.9,0.6,19.6
		c0,11,8.9,19.9,19.9,19.9c0.8,0,1.6-0.1,2.4-0.2C22.5,39.5,22.4,39.5,22.2,39.5z"/>
	<path class="st2" d="M21.3,38.2c0.4-0.1,0.9-0.2,1.5-0.4c0.8-0.3,1.6-0.7,2.6-1.6c1.3-1.1,1.6-1.8,2.2-2.7c0.3-0.5,0.2-0.6,0.9-2
		c0.5-1.1,0.8-1.6,1.1-2.1c0.3-0.5,1.5-2.4,3.7-3.4c0.9-0.4,1.1-0.2,1.8-0.7c1.2-0.8,1.8-1.9,2-2.3c0.2-0.5,1.1-2.4,0.3-4.4
		c-0.1-0.4-0.6-1.6-1.8-2.3c-0.6-0.3-0.7-0.2-1.5-0.4c-0.1,0-2.5-0.8-3.5-2.9c-0.1-0.2,0-0.1-0.6-2.4c-0.5-2-0.6-2.4-0.9-2.8
		s-0.9-1.1-1.9-1.5c-0.3-0.1-1.8-0.7-3.2,0c-1.5,0.7-2.5,2.6-2.2,3.9c0.1,0.3,0.1,0.9-0.2,1.2c-0.2,0.2-0.2,0.2-0.4,0.2l0,0l0,0
		c-0.2,0-0.3-0.1-0.4-0.2c-0.3-0.3-0.2-0.9-0.2-1.2c0.3-1.3-0.7-3.2-2.2-3.9c-1.4-0.7-2.9-0.1-3.2,0c-1.1,0.4-1.7,1.2-1.9,1.5
		c-0.3,0.4-0.4,0.8-0.9,2.8c-0.6,2.4-0.5,2.2-0.6,2.4c-1,2.1-3.4,2.9-3.5,2.9c-0.8,0.2-0.9,0.1-1.5,0.4C5.6,17,5.1,18.2,5,18.6
		c-0.8,2,0,4,0.3,4.4c0.2,0.4,0.7,1.5,2,2.3C8,25.7,8.2,25.6,9.1,26c2.2,1,3.4,2.9,3.7,3.4c0.3,0.5,0.6,1,1.1,2.1
		c0.7,1.4,0.6,1.4,0.9,2c0.6,1,1.1,1.8,2.3,3c1,0.9,1.6,1,2.4,1.3c0.5,0.2,1,0.3,1.5,0.4"/>
	<path class="st3" d="M29.3,25.9c-0.1-0.2-0.3-0.4-0.6-0.4c-0.1,0-0.2,0.1-0.4,0.2C28,25.9,28,25.8,27.7,26
		c-0.3,0.2-0.4,0.3-0.8,0.5c-0.7,0.4-1,0.6-1.2,0.7c-0.6,0.2-0.7,0.2-0.8,0.2c-0.1,0-0.2-0.1-0.5-0.7c-0.3-0.5-0.5-0.8-0.5-0.8
		c-0.2-0.3-0.3-0.4-0.4-0.5c-0.2,0-0.3,0.1-0.4,0.1c-0.9,0.6-1.3,0.9-1.4,1c-0.4,0.3-0.7,0.6-1,0.8c-0.3-0.3-0.7-0.5-1-0.8
		c-0.1-0.1-0.6-0.4-1.4-1c-0.1-0.1-0.2-0.1-0.4-0.1c-0.2,0-0.2,0.2-0.4,0.5c0,0-0.2,0.3-0.5,0.8c-0.4,0.5-0.4,0.6-0.5,0.7
		c-0.1,0-0.2,0.1-0.8-0.2c-0.2-0.1-0.5-0.2-1.2-0.7c-0.4-0.3-0.5-0.3-0.8-0.5c-0.4-0.2-0.3-0.1-0.6-0.3c-0.3-0.2-0.3-0.2-0.4-0.2
		c-0.2,0-0.5,0.2-0.6,0.4c-0.2,0.3-0.1,0.6,0,0.8c0.1,0.1,0.1,0.2,0.6,0.5c0.2,0.1,0.5,0.3,0.7,0.5c0.4,0.3,0.7,0.4,0.8,0.5
		c0.4,0.3,0.4,0.3,0.6,0.4s0.3,0.2,0.6,0.3c0.3,0.2,0.3,0.2,0.5,0.2c0.5,0.2,1-0.2,1-0.2c0.4-0.3,0.6-0.7,0.6-0.7
		c0.1-0.2,0.1-0.4,0.3-0.5c0.2-0.1,0.4-0.1,0.4-0.1c0.2,0,0.4,0.1,0.6,0.3c0.5,0.4,0.6,0.7,0.9,0.9c0.2,0.1,0.5,0.3,0.9,0.4h0.1h0.1
		c0.4-0.1,0.7-0.2,0.9-0.4c0.4-0.3,0.4-0.5,0.9-0.9c0.2-0.2,0.4-0.3,0.6-0.3c0.1,0,0.3,0,0.4,0.1c0.2,0.1,0.2,0.3,0.3,0.5
		c0,0.1,0.2,0.5,0.6,0.7c0.1,0,0.6,0.4,1,0.2c0.2-0.1,0.2-0.1,0.6-0.3c0.3-0.1,0.3-0.2,0.5-0.3c0.2-0.1,0.2-0.1,0.6-0.4
		c0.1-0.1,0.3-0.2,0.8-0.5c0.2-0.1,0.5-0.3,0.7-0.5c0.5-0.3,0.5-0.3,0.6-0.5C29.4,26.4,29.5,26.1,29.3,25.9z"/>
	<path class="st3" d="M12.3,13.5c0-0.1,1.2,0.1,2.3,0.6c0.7,0.3,1.8,0.8,2.6,2.1c0.7,1,0.8,2.1,0.8,2.3c0,0.6,0,1.8-0.8,3
		c-0.2,0.3-1.1,1.6-2.8,1.8c-0.4,0.1-1.8,0.1-2.9-0.9c-0.8-0.8-1.4-2.1-1.1-3.4c0.3-1.2,1.3-2,2.1-2.3c0.8-0.3,2.1-0.4,3,0.1
		c0.3,0.2,0.6,0.4,0.7,0.3c0.2-0.1,0-0.6-0.2-1c-0.3-0.5-0.7-0.9-2.1-1.6C12.7,13.7,12.2,13.5,12.3,13.5z"/>
	<path class="st3" d="M29.6,13.9c0-0.1-1.2,0.1-2.3,0.6c-0.7,0.3-1.8,0.8-2.6,2.1c-0.7,1-0.8,2.1-0.8,2.3c0,0.6,0,1.8,0.8,3
		c0.2,0.3,1.1,1.6,2.8,1.8c0.4,0.1,1.8,0.1,2.9-0.9c0.8-0.8,1.4-2.1,1.1-3.4c-0.3-1.2-1.3-2-2.1-2.3c-0.8-0.3-2.1-0.4-3,0.1
		c-0.3,0.2-0.6,0.4-0.7,0.3c-0.2-0.1,0-0.6,0.2-1c0.3-0.5,0.7-0.9,2.1-1.6C29.2,14.1,29.7,13.9,29.6,13.9z"/>
	<circle class="st4" cx="14.2" cy="19.8" r="1"/>
	<circle class="st4" cx="27.8" cy="20.2" r="1"/>
	<circle class="st5" cx="20" cy="20" r="20"/>
</g>
</svg>
