<?xml version="1.0" encoding="utf-8"?>
<!-- Generator: Adobe Illustrator 26.1.0, SVG Export Plug-In . SVG Version: 6.00 Build 0)  -->
<svg version="1.1" id="Слой_1" xmlns="http://www.w3.org/2000/svg" xmlns:xlink="http://www.w3.org/1999/xlink" x="0px" y="0px"
	 viewBox="0 0 40 40" style="enable-background:new 0 0 40 40;" xml:space="preserve">
<style type="text/css">
	.st0{fill:#FFFFFF;}
	.st1{fill:#2A2D66;}
	.st2{fill:#282355;}
	.st3{fill:none;stroke:#282355;stroke-miterlimit:10;}
	.st4{fill:#010202;}
	.st5{fill:none;stroke:#FFFFFF;stroke-miterlimit:10;}
</style>
<circle class="st0" cx="20" cy="20" r="20"/>
<path class="st1" d="M29.4,31.1c-0.1-0.2-0.3-0.4-0.6-0.4c-0.1,0-0.2,0.1-0.4,0.2c-0.3,0.2-0.3,0.1-0.6,0.3
	c-0.3,0.2-0.4,0.3-0.8,0.5c-0.7,0.4-1,0.6-1.2,0.7c-0.6,0.2-0.7,0.2-0.8,0.2s-0.2-0.1-0.5-0.7c-0.3-0.5-0.5-0.8-0.5-0.8
	c-0.2-0.3-0.3-0.4-0.4-0.5c-0.2,0-0.3,0.1-0.4,0.1c-0.9,0.6-1.3,0.9-1.4,1c-0.4,0.3-0.7,0.6-1,0.8c-0.3-0.3-0.7-0.5-1-0.8
	c-0.1-0.1-0.6-0.4-1.4-1c-0.1-0.1-0.2-0.1-0.4-0.1s-0.2,0.2-0.4,0.5c0,0-0.2,0.3-0.5,0.8c-0.4,0.5-0.4,0.6-0.5,0.7
	c-0.1,0-0.2,0.1-0.8-0.2c-0.2-0.1-0.5-0.2-1.2-0.7c-0.4-0.3-0.5-0.3-0.8-0.5c-0.4-0.2-0.3-0.1-0.6-0.3c-0.3-0.2-0.3-0.2-0.4-0.2
	c-0.2,0-0.5,0.2-0.6,0.4c-0.2,0.3-0.1,0.6,0,0.8c0.1,0.1,0.1,0.2,0.6,0.5c0.2,0.1,0.5,0.3,0.7,0.5c0.4,0.3,0.7,0.4,0.8,0.5
	c0.4,0.3,0.4,0.3,0.6,0.4c0.2,0.1,0.3,0.2,0.6,0.3c0.3,0.2,0.3,0.2,0.5,0.2c0.5,0.2,1-0.2,1-0.2c0.4-0.3,0.6-0.7,0.6-0.7
	c0.1-0.2,0.1-0.4,0.3-0.5s0.4-0.1,0.4-0.1c0.2,0,0.4,0.1,0.6,0.3c0.5,0.4,0.6,0.7,0.9,0.9c0.2,0.1,0.5,0.3,0.9,0.4h0.1h0.1
	c0.4-0.1,0.7-0.2,0.9-0.4c0.4-0.3,0.4-0.5,0.9-0.9c0.2-0.2,0.4-0.3,0.6-0.3c0.1,0,0.3,0,0.4,0.1c0.2,0.1,0.2,0.3,0.3,0.5
	c0,0.1,0.2,0.5,0.6,0.7c0.1,0,0.6,0.4,1,0.2c0.2-0.1,0.2-0.1,0.6-0.3c0.3-0.1,0.3-0.2,0.5-0.3c0.2-0.1,0.2-0.1,0.6-0.4
	c0.1-0.1,0.3-0.2,0.8-0.5c0.2-0.1,0.5-0.3,0.7-0.5c0.5-0.3,0.5-0.3,0.6-0.5C29.5,31.6,29.6,31.3,29.4,31.1z"/>
<path class="st2" d="M20,0C9,0,0,9,0,20c0,7.4,4,13.8,10,17.3c-1.1-2.4-1.3-4.8-1.4-6.7c-0.1-1.6-0.5-4.8,0.3-7.3
	c0.3-0.9,0.4-1.8,1.1-3c0.6-1,1.1-1.3,2-2.1c1.8-1.5,2.4-1.5,3.1-2.5c1-1.3,0.8-2.4,0.9-2.9c0.1-1.3-0.1-1.5,0-2.6
	c0.1-0.5,0.3-2.1,1.7-3c1.3-0.9,2.8-0.6,3.2-0.5c0.2,0,2.3,0.4,3,2c0.3,0.8,0.2,1.1,0.3,2.9c0.1,0.9-0.2,2,0.4,3
	c0.7,1.1,1.7,1.6,2.5,1.9c1.2,0.6,1.6,0.6,2.4,1c1.6,0.9,2.4,2.2,2.9,3.4c0.8,1.9,0.9,3.6,1,6.7c0,1.2,0,2,0,2.9
	c0,1.7-0.1,3.1-0.1,4.4c4.1-3.7,6.7-9,6.7-14.9C40,8.9,31,0,20,0z"/>
<circle class="st2" cx="25.6" cy="22.6" r="3"/>
<circle class="st3" cx="25.6" cy="22.6" r="4"/>
<circle class="st3" cx="15.6" cy="22.6" r="4"/>
<circle class="st2" cx="15.6" cy="22.6" r="2.8"/>
<circle class="st0" cx="15.6" cy="22.6" r="1.5"/>
<circle class="st0" cx="25.6" cy="22.6" r="1.5"/>
<path class="st4" d="M33.9,27.2c-0.1-3.1-0.2-4.8-1-6.7c-0.5-1.2-1.3-2.5-2.9-3.4c-0.8-0.4-1.2-0.4-2.4-1c-0.8-0.4-1.8-0.9-2.5-1.9
	c-0.6-1-0.5-2.1-0.6-3c-0.2-1.7,0-1.9-0.4-2.7c-0.6-1.6-2.6-2-2.8-2c-0.3,0-1.2-0.2-2.8,0.1C18,6.7,17.3,7,16.7,7.4
	c-1.4,0.9-1.6,2.5-1.7,3c-0.2,1.1,0.1,1.3,0,2.6c0,0.4,0.1,1.6-0.9,2.9c-0.8,1-1.4,1-3.1,2.5c-0.9,0.8-1.4,1.1-2,2.1
	c-0.7,1.2-0.8,2-1.1,3c-0.7,2.4-0.4,5.7-0.3,7.3c0.1,1.6,0.3,3.5,1,5.6c0.5,0.3,0.9,0.6,1.4,0.9c-0.8-2.1-1-4.2-1.1-5.9
	c-0.1-1.6-0.5-4.8,0.3-7.3c0.3-0.9,0.4-1.8,1.1-3c0.6-1,1.1-1.3,2-2.1c1.8-1.5,2.4-1.5,3.1-2.5c1-1.3,0.8-2.4,0.9-2.9
	c0.1-1.3-0.1-1.5,0-2.6c0.1-0.5,0.3-2.1,1.7-3c0.7-0.5,1.4-0.5,2-0.5c0.2,0,2.6,0,3.3,1.6c0.3,0.8,0.3,1.6,0.4,3.4
	c0.1,0.9-0.2,2,0.4,3c0.7,1.1,1.7,1.6,2.5,1.9c1.2,0.6,1.6,0.6,2.4,1c1.6,0.9,2.4,2.2,2.9,3.4c0.8,1.9,0.9,3.6,1,6.7
	c0,0.3,0,0.6,0,0.9c0,0.9,0,1.6,0,2c0,0.9-0.1,2.2-0.1,3.8c0.3-0.3,0.6-0.6,0.9-0.9c0-1.7,0.1-3.1,0.1-4c0-0.3,0-1,0-2
	C33.9,27.8,33.9,27.5,33.9,27.2z"/>
<circle class="st5" cx="20" cy="20" r="20"/>
</svg>
