<?xml version="1.0" encoding="utf-8"?>
<!-- Generator: Adobe Illustrator 26.1.0, SVG Export Plug-In . SVG Version: 6.00 Build 0)  -->
<svg version="1.1" id="Слой_1" xmlns="http://www.w3.org/2000/svg" xmlns:xlink="http://www.w3.org/1999/xlink" x="0px" y="0px"
	 viewBox="0 0 40 40" style="enable-background:new 0 0 40 40;" xml:space="preserve">
<style type="text/css">
	.st0{fill:none;}
	.st1{fill:#372D87;}
	.st2{fill:#272250;}
	.st3{fill:#010202;}
	.st4{fill:#E5C8A3;}
	.st5{fill:#FFFFFF;stroke:#45342C;stroke-width:0.5;stroke-miterlimit:10;}
	.st6{fill:none;stroke:#010202;stroke-miterlimit:10;}
	.st7{fill:#633125;}
	.st8{fill:none;stroke:#020304;stroke-width:0.5;stroke-miterlimit:10;}
	.st9{fill:#D86671;stroke:#020304;stroke-width:0.25;stroke-miterlimit:10;}
	.st10{fill:none;stroke:#020304;stroke-width:0.25;stroke-miterlimit:10;}
</style>
<g>
	<g>
		<path class="st0" d="M24.9,0.7c0.4,3.1-2.6,7.5-2.8,7.9c-1.5,2.2-2.2,2-2.4,3.1c-0.6,3.9,8.8,5.5,10.9,12.7
			c0.1,0.2-0.1,3.2-0.3,9.1c-0.1,1.5-0.1,2.7-0.2,3.8c6-3.4,10-9.9,10-17.3C40,10.7,33.6,2.8,24.9,0.7z"/>
		<path class="st1" d="M30.5,24.4c-2.1-7.2-11.5-8.8-10.9-12.7c0.2-1.1,0.9-0.9,2.4-3.1c0.2-0.3,3.2-4.8,2.8-7.9
			c-1.5-0.4-3.1-0.6-4.8-0.6C9.1,0.1,0.2,9,0.2,20s8.9,19.9,19.9,19.9c3.6,0,7-1,9.9-2.6c0.1-1,0.2-2.3,0.2-3.8
			C30.5,27.6,30.6,24.6,30.5,24.4z"/>
	</g>
	<g>
		<g>
			<path class="st2" d="M39.7,20c0-10.5-8.1-19-18.4-19.8c0.2,0.2,0.4,0.5,0.6,1.1c0.2,0.7,0.3,1.2,0.2,2.1C22,4.9,21.4,6,21.2,6.4
				c-0.5,0.8-1,1.8-1.9,2.6c-0.3,0.3-0.8,0.8-1.1,1.4c-0.1,0.1-0.4,0.6,0,0.9c0.2,0.2,0.8,0.3,1.3,0.2c1.2-0.3,1.8-0.8,2.7-1.3
				c1.2-0.6,2.3-0.8,2.9-0.9c0.5-0.1,1.6-0.2,2.9,0.1c1,0.2,2.5,0.5,3.4,1.8c0.3,0.4,0.6,1,0.8,1.6c0.2,0.4,0.3,0.8,0.5,1.3
				c0.1,0.5,0.1,0.6,0.3,1.5c0.1,0.9,0.2,1.4,0.3,1.6c0.3,0.6,0.8,0.8,1.7,1.3c0.6,0.3,0.8,0.3,1,0.5c1.3,0.7,1.7,2.6,1.8,3.8
				c0,1.4-0.5,2.3-1.3,3.7c-0.5,0.9-1.3,2.2-2.8,3.3c-1.3,0.9-2.6,1.3-3.1,1.4c-1,0.3-1,0.1-2,0.4c-0.8,0.2-2.1,0.6-3.2,1.6
				c-1.1,1-1.6,2.2-2,3.2c-0.4,0.9-0.5,1.6-1.1,2.4c-0.4,0.5-1,0.8-1.3,0.9C31.4,39.3,39.7,30.6,39.7,20z"/>
		</g>
	</g>
	<path class="st3" d="M17.4,10.4c-0.3-0.6-0.6-1.2-0.9-1.8c-0.4-1-0.9-2.1-1.8-2.7c-1-0.7-2.2-0.6-2.7-0.6c-1.3,0.1-2.3,0.7-2.7,1
		C8.2,6.9,7.7,7.7,7,8.7c-0.8,1.1-1.1,1.7-1.2,2.6c0,0.3-0.2,1.5,0.4,2.5c0.4,0.7,0.9,0.9,0.9,1.6c0,0.1,0.1,0.6-0.2,1
		c-0.4,0.4-1,0.2-1.4,0.2c-1.5,0-2.8,1.3-3.3,2c-0.7,1.1-0.8,2.5-0.1,5.3c0.4,1.8,1.2,3.1,2.2,4.6c0.7,1,1.6,1.7,3.5,3.2
		c2.9,2.3,2.9,2.1,4.5,3.4c1.1,0.9,1.8,1.5,3,2.6c0.4,0.4,0.9,0.8,1.7,1.3c0.8,0.5,1.5,0.6,2.1,0.7c1.7,0.3,3.1-1,3.9-1.8
		c2.4-2.2,1.7-3.6,3.6-4.9c1.3-0.9,1.7-0.3,4.2-1.4c0.9-0.4,2.2-1,3.4-2.1c0.6-0.6,2.8-2.4,3.3-5.5c0.2-0.9,0.6-3.3-0.8-4.9
		c-0.9-1-1.7-0.6-2.6-1.6c-1.4-1.5-0.4-3.3-1.5-5.5c-1-2-3-2.9-3.4-3C26,7.7,22.6,9.2,20.9,10c-0.2,0.1-1.6,0.7-2,1.1
		c0,0-0.1,0.1-0.3,0.2c-0.2,0.1-0.4,0.1-0.5,0.1C17.8,11.3,17.6,10.8,17.4,10.4z"/>
	<path class="st4" d="M19.1,12.6c1,0,1.2-0.3,3.1-0.8c1.7-0.5,2.6-0.7,3.8-0.7c0.8,0,1.7,0,2.6,0.5c0.3,0.2,1.9,1,2.4,2.6
		c0.4,1.2,0,1.3,0.2,2.7c0.1,0.3,0.5,1.5,1.6,2.4c0.5,0.4,0.7,0.3,1.2,0.8c0.1,0.1,0.9,0.8,1.3,1.8c0.7,1.8-0.4,3.7-0.8,4.5
		c-0.2,0.4-0.9,1.3-2.2,2.2c-0.2,0.1-0.3,0.4-2.8,1.3c-2.6,1-2.6,1-2.8,1c-1.1,0.3-1.4,0.4-1.9,0.8c-0.3,0.2-0.6,0.3-1.3,1.6
		c-0.7,1.3-1.1,2-1.5,3c-0.2,0.6-0.5,1.3-1.1,2.1c-0.2,0.2-0.2,0.4-0.7,0.7c-0.2,0.1-0.7,0.2-1.1,0.1c-0.6-0.1-0.9-0.5-1.2-0.9
		c-0.5-0.9-1.2-1.7-1.9-2.5c-0.6-0.6-0.7-1-4.4-3.5c-3.3-2.2-3.3-2.1-3.6-2.4c-2-1.8-3.1-3.6-3.5-4.5c-0.8-1.7-1.6-3.9-0.7-5.4
		c0.4-0.7,1.4-1.6,2.5-2c0.7-0.3,1.3-0.3,1.9-0.8c0.2-0.2,0.7-0.8,0.7-1.5c0-0.6-0.5-0.8-0.8-1.4c-1-1.5-0.5-3.4-0.4-3.8
		c0.1-0.4,0.5-1.7,1.8-2.7c0.4-0.3,1.3-1.1,2.6-1c0.3,0,1.8,0,2.6,1.1c0.3,0.4,0.2,0.5,0.5,1.5c0.4,1.3,0.7,2.2,1.3,2.7
		C17.2,12.7,18.3,12.7,19.1,12.6z"/>
	<circle class="st5" cx="25.8" cy="19" r="3.5"/>
	<circle class="st5" cx="14.6" cy="19" r="3.5"/>
	<circle class="st6" cx="20" cy="20" r="20"/>
	<path class="st7" d="M20.9,23.9c0-0.2,0.6-0.4,0.8-0.2c0.2,0.2,0.2,0.6,0,0.7C21.4,24.6,20.8,24.2,20.9,23.9z"/>
	<path class="st7" d="M20.2,23.9c0-0.2-0.6-0.4-0.8-0.2c-0.2,0.2-0.2,0.6,0,0.7C19.6,24.6,20.2,24.2,20.2,23.9z"/>
	<path class="st8" d="M16.5,27c0.9,1.6,2.6,2.4,4.2,2.1c1.8-0.3,2.6-1.8,2.8-2"/>
	<path class="st9" d="M19.2,29.3c0.1,0.1,0.2,0.1,0.6,0.1c0.3,0,0.5,0,0.7,0c0.5,0,0.4-0.1,0.6-0.1c0.2,0,0.5,0,0.9,0.2
		c0.3,0.2,0.4,0.4,0.5,0.5c0.3,0.4,0.3,0.9,0.2,1.1c0,0.2-0.1,0.4-0.3,0.7c-0.3,0.3-0.6,0.4-1,0.5c-0.2,0.1-0.7,0.2-1.3,0
		c-0.3-0.1-0.9-0.2-1.3-0.8c-0.4-0.6-0.3-1.2-0.3-1.4c0.1-0.4,0.2-0.9,0.4-0.9C19.1,29.2,19.1,29.2,19.2,29.3z"/>
	<path class="st8" d="M18.9,29.1c-0.1,0.1-0.7,0.8-0.5,1.8c0.2,1,1.3,1.6,2.3,1.6c0.9,0,2-0.5,2.1-1.3c0.1-0.8-0.3-1.9-1.8-2.1"/>
	<path class="st10" d="M19.8,29.2c0.2,0.1,0.4,0.3,0.6,0.5c0.2,0.2,0.7,0.7,0.7,1.5c0,0.5-0.4,1-0.5,1.1"/>
	<circle class="st3" cx="14.8" cy="19" r="1.6"/>
	<circle class="st3" cx="25.9" cy="19" r="1.6"/>
</g>
</svg>
