<?xml version="1.0" encoding="utf-8"?>
<!-- Generator: Adobe Illustrator 26.1.0, SVG Export Plug-In . SVG Version: 6.00 Build 0)  -->
<svg version="1.1" id="Слой_1" xmlns="http://www.w3.org/2000/svg" xmlns:xlink="http://www.w3.org/1999/xlink" x="0px" y="0px"
	 viewBox="0 0 40 40" style="enable-background:new 0 0 40 40;" xml:space="preserve">
<style type="text/css">
	.st0{fill:#7F7FA5;enable-background:new    ;}
	.st1{fill:#FFFFFF;stroke:#010202;stroke-width:0.5;stroke-miterlimit:10;}
	.st2{fill:#E52421;stroke:#010202;stroke-width:0.5;stroke-miterlimit:10;}
	.st3{fill:#E41923;stroke:#010202;stroke-width:0.75;stroke-miterlimit:10;}
	.st4{fill:#282355;}
	.st5{fill:none;stroke:#010202;stroke-miterlimit:10;}
	.st6{fill:#020304;}
</style>
<circle class="st0" cx="20" cy="19.9" r="20"/>
<circle class="st1" cx="10.3" cy="16.1" r="4.3"/>
<circle class="st1" cx="29.4" cy="16.1" r="4.3"/>
<path class="st2" d="M14.7,22.4c0.8,0.1,1.5,0.6,2,0.8c0.5,0.3,1,0.4,1.5,0.5c1.3,0.3,2.3,0.1,2.8,0c1-0.2,2.2-0.5,2.7-0.8
	c0.3-0.2,0.6-0.3,1-0.6c0.1-0.1,0.7-0.5,0.9-0.5c0.1,0-0.1,0.6-0.2,0.8c-0.1,0.4-0.2,0.9-0.1,1.2c0.2,1.2,0.4,1.1,0.6,1.7
	c0.3,0.9-0.1,1.6-0.2,2c-0.3,0.8-0.6,1.3-1.2,2.1c-0.1,0.1-0.2,0.3-0.3,0.3c-0.1,0,0.1-0.4,0.2-0.6c0.1-0.5,0.3-0.8,0.3-0.9
	c0.1-0.2,0.4-1,0.3-1.9c-0.1-0.3-0.3-0.6-0.7-1.3c-0.3-0.5-0.5-0.7-0.7-0.7c-0.3-0.1-0.5,0-0.7,0c0,0-0.6,0.2-1.7,0.4
	c-1.1,0.2-1.8,0-2.5-0.1c-0.4-0.1-0.7-0.1-1.2,0c-0.2,0-0.5,0.1-0.7,0.2c-0.5,0.4-0.4,1.2-0.3,1.7c0.1,0.7,0.4,1.2,0.6,1.6
	c0.3,0.5,0.5,0.8,0.7,0.9c0.2,0.2,0.4,0.3,0.4,0.4s-0.4-0.1-0.6-0.2c-1.2-0.6-1.6-2.3-1.7-2.6c-0.1-0.2-0.1-0.6-0.2-1.1
	c-0.1-0.6,0-0.7-0.1-1.2c-0.1-0.6-0.3-1-0.4-1.1c-0.1-0.2-0.2-0.3-0.3-0.5C14.7,22.6,14.6,22.4,14.7,22.4z"/>
<circle class="st3" cx="10.3" cy="16.1" r="1.5"/>
<circle class="st3" cx="29.4" cy="16.1" r="1.5"/>
<path class="st4" d="M20.3,0.4C9.5,0.4,0.6,9.2,0.6,20c0,10.2,7.9,18.7,17.8,19.6c-0.1-0.4-0.1-0.9-0.2-1.6
	c-0.1-0.9-0.3-1.5-1.6-2.9c-3.3-3.8-3.1-3.4-3.7-4c-1.2-1.1-1.4-1.2-4.3-3c-3.1-2-4.7-3-5.4-3.9c-1.5-2.2-1.7-4.9-1-7.1
	c0.3-0.8,1-2.8,2.5-3.1c0.6-0.2,1,0,2.6-0.2c0.9-0.1,1.4-0.3,1.8-0.7c0.1-0.1,0.3-0.7,0.2-1.2c-0.1-0.5-0.4-0.5-0.7-1
	c-0.4-0.6-0.2-1.3-0.1-1.8C8.7,7.8,9.8,7.1,10,6.9c1.3-1,2.8-0.8,3.6-0.7c0.7,0.1,3,0.3,4.2,2c0.5,0.7,0.7,1.4,1.5,1.8
	c0.2,0.1,0.9,0.4,1.6,0.2c0.5-0.1,0.7-0.4,1.1-0.7c0.8-0.5,1.5-0.6,2.9-0.6c0.6,0,2.2,0,4,0.8c0.9,0.4,1.4,0.7,1.8,1.4
	c0.5,0.6,0.4,0.8,1,1.8c0.3,0.6,0.9,1.5,1.6,1.5c0.3,0,0.5-0.2,0.9-0.3c0.7-0.1,1.4,0.4,1.7,0.7c1.1,0.9,1.7,2.5,1.9,3.2
	c0.5,2.3,0.3,3.7-0.5,6c-1.2,3.7-4.2,5.6-4.9,6c-1.3,0.7-1.5,0.7-3.3,1.7c-1,0.5-2.5,1.4-4.1,3.1c-1.1,1.2-1.9,2-2.4,3.2
	c-0.3,0.7-0.4,1.3-0.4,1.8c10-1,17.8-9.4,17.8-19.6C40,9.1,31.2,0.4,20.3,0.4z"/>
<circle class="st5" cx="20.2" cy="20" r="20"/>
<path class="st6" d="M37.4,23.8c0.8-2.3,1-3.9,0.5-6.1c-0.2-0.8-0.8-2.3-1.9-3.3c-0.3-0.2-1-0.7-1.7-0.7c-0.4,0-0.6,0.3-0.9,0.3
	c-0.7,0-1.3-0.9-1.6-1.5c-0.6-1-0.6-1.2-1-1.8c-0.5-0.6-0.9-1-1.8-1.4c-1.9-0.8-3.5-0.8-4.1-0.8c-1.3,0-2,0.1-2.9,0.6
	c-0.4,0.2-0.6,0.5-1.1,0.7c-0.7,0.2-1.4-0.1-1.6-0.2c-0.9-0.4-1-1.1-1.5-1.8c-1.3-1.7-3.6-1.9-4.3-2c-0.8-0.1-2.3-0.2-3.7,0.7
	c-0.3,0.2-1.4,1-1.6,2.4C8.1,9.3,8,10,8.3,10.7c0.3,0.5,0.6,0.6,0.7,1.1c0.1,0.6-0.2,1.1-0.3,1.2c-0.4,0.4-0.9,0.5-1.8,0.7
	C5.2,14,5,13.9,4.4,14c-1.5,0.4-2.2,2.4-2.5,3.2c-0.8,2.2-0.5,5.1,1,7.2c0.7,1.1,2.3,2.1,5.5,4c3,1.8,3.2,1.9,4.4,3
	c0.7,0.6,0.4,0.2,3.8,4.1c1.3,1.4,1.4,2.1,1.6,2.9c0.1,0.6,0.2,1.1,0.2,1.6c0.6,0.1,1.2,0.1,1.9,0.1c0.6,0,1.3,0,1.9-0.1
	c0.1-0.5,0.1-1.1,0.4-1.8c0.5-1.3,1.3-2.1,2.4-3.3c1.6-1.7,3.2-2.6,4.2-3.1c1.9-1,2.1-1,3.4-1.7C33,29.6,36.1,27.6,37.4,23.8z
	 M33.3,27.6c-0.5,0.5-1.3,0.9-2.9,1.8c-2,1.2-2,1-2.9,1.6c-0.5,0.3-1.9,1.2-3.4,2.8c-0.9,0.9-1.5,1.6-2.2,2.6
	c-0.9,1.4-1.3,2.2-1.4,2.5c-0.1,0.4-0.3,0.8-0.5,0.8c-0.3,0-0.5-0.9-0.7-1.4c-0.5-1.7-1.4-2.9-2.3-4.1c-1.4-1.9-2.7-2.9-3.4-3.4
	c-0.9-0.6-0.9-0.7-2.5-1.6c-1.3-0.8-2.5-1.5-4.1-2.6c-1.9-1.6-3.2-2.3-3.8-4c-0.7-1.9-0.5-3.8-0.3-4.6c0.2-1.2,0.4-1.6,0.7-2
	c0.8-1,2.1-1.1,2.2-1.1c0.5,0,0.5,0.1,1.3,0.1c1.2,0,1.8,0,2.2-0.4c0.6-0.6,0.5-1.7,0.4-1.9C9.6,11.8,9.2,11.8,9,11
	c-0.3-1.2,0.2-2.7,1.3-3.4c0.7-0.5,1.5-0.5,2.1-0.5c0.4,0,1.4,0,2.4,0.6c0.5,0.3,0.9,0.7,1.6,1.5c0.8,0.9,0.8,1.1,1.4,1.6
	s1.2,1.1,1.9,1.1c0.6,0,0.7-0.3,1.7-0.8c0.8-0.4,1.9-1,3.2-1c0.8,0,1.4,0.2,2.4,0.6s1.6,0.6,2.2,1.2c0.5,0.5,0.8,1.1,1.1,1.6
	c0.4,0.8,0.4,0.8,0.7,1.1c0.4,0.5,0.9,0.6,1.8,0.9c1.1,0.3,1.7,0.5,2.1,0.7c1.7,1,1.7,4,1.7,4.5c0,1.9-0.8,3.3-1.3,4.3
	C34.6,26.5,33.5,27.4,33.3,27.6z"/>
</svg>
