<?xml version="1.0" encoding="utf-8"?>
<!-- Generator: Adobe Illustrator 26.1.0, SVG Export Plug-In . SVG Version: 6.00 Build 0)  -->
<svg version="1.1" id="Слой_1" xmlns="http://www.w3.org/2000/svg" xmlns:xlink="http://www.w3.org/1999/xlink" x="0px" y="0px"
	 viewBox="0 0 50 50" style="enable-background:new 0 0 50 50;" xml:space="preserve">
<style type="text/css">
	
		.st0{fill:url(#SVGID_1_);stroke:url(#SVGID_00000096757988392172536630000014664333812762963075_);stroke-width:1.5;stroke-miterlimit:10;}
	.st1{fill:url(#SVGID_00000158717300207643593070000006484978465230359470_);}
	.st2{fill:url(#SVGID_00000100379234174881850880000014426624161089642165_);}
	.st3{opacity:0.7;}
	.st4{fill:url(#SVGID_00000070106106502115910270000000895265763354329485_);}
	.st5{fill:none;stroke:#A06004;stroke-miterlimit:10;}
	.st6{fill:url(#SVGID_00000092449961672988295120000015868978130927959998_);}
	.st7{fill:url(#SVGID_00000052824659743096050460000010658140115462993581_);}
	.st8{fill:url(#SVGID_00000106147638710420141890000017016082144871559099_);}
	.st9{fill:url(#SVGID_00000000223019466762808800000010576636103440000172_);}
	
		.st10{fill:url(#SVGID_00000124124996242546554670000012966683041056976035_);stroke:#A05D05;stroke-width:1.5;stroke-miterlimit:10;}
	
		.st11{fill:url(#SVGID_00000148638728101756617030000007788037531896419774_);stroke:#B46D03;stroke-width:0.5;stroke-miterlimit:10;}
</style>
<linearGradient id="SVGID_1_" gradientUnits="userSpaceOnUse" x1="1" y1="25" x2="49" y2="25" gradientTransform="matrix(1 0 0 -1 0 50)">
	<stop  offset="0" style="stop-color:#FFD400;stop-opacity:0.7"/>
	<stop  offset="0.2633" style="stop-color:#E5A602;stop-opacity:0.9513"/>
	<stop  offset="0.508" style="stop-color:#C88607"/>
	<stop  offset="0.7367" style="stop-color:#E5A602;stop-opacity:0.9763"/>
	<stop  offset="0.883" style="stop-color:#E4A402"/>
	<stop  offset="1" style="stop-color:#FFD400;stop-opacity:0.7"/>
</linearGradient>
<linearGradient id="SVGID_00000127024425380259352540000016906523818352662434_" gradientUnits="userSpaceOnUse" x1="0.25" y1="25" x2="49.75" y2="25" gradientTransform="matrix(1 0 0 -1 0 50)">
	<stop  offset="0" style="stop-color:#FFD400;stop-opacity:0.7"/>
	<stop  offset="3.460000e-02" style="stop-color:#E5A602;stop-opacity:0.9513"/>
	<stop  offset="9.310000e-02" style="stop-color:#C88607"/>
	<stop  offset="0.2367" style="stop-color:#CA8907"/>
	<stop  offset="0.6223" style="stop-color:#E4A402"/>
	<stop  offset="0.9548" style="stop-color:#A06701"/>
	<stop  offset="1" style="stop-color:#FFD400;stop-opacity:0.7"/>
</linearGradient>
<circle style="fill:url(#SVGID_1_);stroke:url(#SVGID_00000127024425380259352540000016906523818352662434_);stroke-width:1.5;stroke-miterlimit:10;" cx="25" cy="25" r="24"/>
<linearGradient id="SVGID_00000173863227913754849550000007860297838935445901_" gradientUnits="userSpaceOnUse" x1="4.0028" y1="25.0012" x2="45.9955" y2="25.0012" gradientTransform="matrix(-0.5219 0.8183 0.8076 0.515 17.8561 -8.3324)">
	<stop  offset="0" style="stop-color:#FFD400;stop-opacity:0.7"/>
	<stop  offset="0.1909" style="stop-color:#662700"/>
	<stop  offset="0.3324" style="stop-color:#764006;stop-opacity:0.8795"/>
	<stop  offset="0.5665" style="stop-color:#83530B;stop-opacity:0.7"/>
	<stop  offset="0.8085" style="stop-color:#5F4011;stop-opacity:0.7"/>
	<stop  offset="1" style="stop-color:#FFD400;stop-opacity:0.7"/>
</linearGradient>
<path style="fill:url(#SVGID_00000173863227913754849550000007860297838935445901_);" d="M14,42.2c-9.4-6-12.1-18.5-6-28
	S26.6,1.8,36,7.8s12,18.5,6,28S23.4,48.2,14,42.2z"/>
<radialGradient id="SVGID_00000168833066324085695300000012192243478674817408_" cx="25" cy="25" r="19" gradientTransform="matrix(1 0 0 -1 0 50)" gradientUnits="userSpaceOnUse">
	<stop  offset="0" style="stop-color:#FFD400;stop-opacity:0.7"/>
	<stop  offset="0.2154" style="stop-color:#D69B03;stop-opacity:0.7"/>
	<stop  offset="0.4495" style="stop-color:#D79B04;stop-opacity:0.7"/>
	<stop  offset="1" style="stop-color:#FFD400;stop-opacity:0.7"/>
</radialGradient>
<circle style="fill:url(#SVGID_00000168833066324085695300000012192243478674817408_);" cx="25" cy="25" r="19"/>
<g>
	<g>
		<g class="st3">
			
				<linearGradient id="SVGID_00000139990119091184744580000000267622223928292776_" gradientUnits="userSpaceOnUse" x1="28.3097" y1="15.4927" x2="34.798" y2="15.4927" gradientTransform="matrix(1 0 0 -1 0 50)">
				<stop  offset="0" style="stop-color:#FFD400;stop-opacity:0.7"/>
				<stop  offset="9.840000e-02" style="stop-color:#E5A602;stop-opacity:0.9513"/>
				<stop  offset="0.7367" style="stop-color:#E5A602;stop-opacity:0.9763"/>
				<stop  offset="0.883" style="stop-color:#E4A402"/>
				<stop  offset="1" style="stop-color:#FFD400;stop-opacity:0.7"/>
			</linearGradient>
			<path style="fill:url(#SVGID_00000139990119091184744580000000267622223928292776_);" d="M33.9,31.2l-3.3,0.5
				c-0.4,0-0.6,0.3-0.8,0.6l-1.4,2.8l4.9,2.6c0.8,0.4,1.7-0.2,1.5-1.1L33.9,31.2z"/>
			<path class="st5" d="M33.9,31.2l-3.3,0.5c-0.4,0-0.6,0.3-0.8,0.6l-1.4,2.8l4.9,2.6c0.8,0.4,1.7-0.2,1.5-1.1L33.9,31.2z"/>
		</g>
		<g class="st3">
			
				<linearGradient id="SVGID_00000044861339538930914040000014778805599743869314_" gradientUnits="userSpaceOnUse" x1="33.1839" y1="27.855" x2="39.9479" y2="27.855" gradientTransform="matrix(1 0 0 -1 0 50)">
				<stop  offset="0" style="stop-color:#FFD400;stop-opacity:0.7"/>
				<stop  offset="9.840000e-02" style="stop-color:#E5A602;stop-opacity:0.9513"/>
				<stop  offset="0.7367" style="stop-color:#E5A602;stop-opacity:0.9763"/>
				<stop  offset="0.883" style="stop-color:#E4A402"/>
				<stop  offset="1" style="stop-color:#FFD400;stop-opacity:0.7"/>
			</linearGradient>
			<path style="fill:url(#SVGID_00000044861339538930914040000014778805599743869314_);" d="M33.2,22c-0.1,0.4,0,0.7,0.3,1l2.4,2.4
				l3.7-3.6c0.6-0.6,0.3-1.7-0.6-1.8L33.7,19L33.2,22z"/>
			<path class="st5" d="M33.2,22c-0.1,0.4,0,0.7,0.3,1l2.4,2.4l3.7-3.6c0.6-0.6,0.3-1.7-0.6-1.8L33.7,19L33.2,22z"/>
		</g>
		<g class="st3">
			
				<linearGradient id="SVGID_00000036943134112015056810000013097959691758417283_" gradientUnits="userSpaceOnUse" x1="22.2385" y1="36.7206" x2="28.5385" y2="36.7206" gradientTransform="matrix(1 0 0 -1 0 50)">
				<stop  offset="0" style="stop-color:#FFD400;stop-opacity:0.7"/>
				<stop  offset="9.840000e-02" style="stop-color:#E5A602;stop-opacity:0.9513"/>
				<stop  offset="0.7367" style="stop-color:#E5A602;stop-opacity:0.9763"/>
				<stop  offset="0.883" style="stop-color:#E4A402"/>
				<stop  offset="1" style="stop-color:#FFD400;stop-opacity:0.7"/>
			</linearGradient>
			<path style="fill:url(#SVGID_00000036943134112015056810000013097959691758417283_);" d="M24.8,16.4c0.3,0.2,0.7,0.2,1,0l2.8-1.4
				l-2.2-4.4c-0.4-0.8-1.5-0.8-1.9,0l-2.2,4.5L24.8,16.4z"/>
			<path class="st5" d="M24.8,16.4c0.3,0.2,0.7,0.2,1,0l2.8-1.4l-2.2-4.4c-0.4-0.8-1.5-0.8-1.9,0l-2.2,4.5L24.8,16.4z"/>
		</g>
		<g class="st3">
			
				<linearGradient id="SVGID_00000089571639264228902770000007982101847860642444_" gradientUnits="userSpaceOnUse" x1="10.8621" y1="27.995" x2="17.2518" y2="27.995" gradientTransform="matrix(1 0 0 -1 0 50)">
				<stop  offset="0" style="stop-color:#FFD400;stop-opacity:0.7"/>
				<stop  offset="9.840000e-02" style="stop-color:#E5A602;stop-opacity:0.9513"/>
				<stop  offset="0.7367" style="stop-color:#E5A602;stop-opacity:0.9763"/>
				<stop  offset="0.883" style="stop-color:#E4A402"/>
				<stop  offset="1" style="stop-color:#FFD400;stop-opacity:0.7"/>
			</linearGradient>
			<path style="fill:url(#SVGID_00000089571639264228902770000007982101847860642444_);" d="M14.6,25l2.3-2.2c0.3-0.2,0.4-0.6,0.3-1
				l-0.4-2.7l-5,0.7c-0.9,0.1-1.2,1.2-0.6,1.8L14.6,25z"/>
			<path class="st5" d="M14.6,25l2.3-2.2c0.3-0.2,0.4-0.6,0.3-1l-0.4-2.7l-5,0.7c-0.9,0.1-1.2,1.2-0.6,1.8L14.6,25z"/>
		</g>
		<g class="st3">
			
				<linearGradient id="SVGID_00000052807040052296807630000014524904872038709396_" gradientUnits="userSpaceOnUse" x1="16.0038" y1="15.5477" x2="22" y2="15.5477" gradientTransform="matrix(1 0 0 -1 0 50)">
				<stop  offset="0" style="stop-color:#FFD400;stop-opacity:0.7"/>
				<stop  offset="9.840000e-02" style="stop-color:#E5A602;stop-opacity:0.9513"/>
				<stop  offset="0.7367" style="stop-color:#E5A602;stop-opacity:0.9763"/>
				<stop  offset="0.883" style="stop-color:#E4A402"/>
				<stop  offset="1" style="stop-color:#FFD400;stop-opacity:0.7"/>
			</linearGradient>
			<path style="fill:url(#SVGID_00000052807040052296807630000014524904872038709396_);" d="M20.5,32.2c-0.1-0.3-0.5-0.5-0.8-0.6
				l-2.7-0.4L16,36.5c-0.1,0.9,0.8,1.5,1.5,1.1l4.4-2.3L20.5,32.2z"/>
			<path class="st5" d="M20.5,32.2c-0.1-0.3-0.5-0.5-0.8-0.6l-2.7-0.4L16,36.5c-0.1,0.9,0.8,1.5,1.5,1.1l4.4-2.3L20.5,32.2z"/>
		</g>
	</g>
</g>
<linearGradient id="SVGID_00000181776950284505542940000002477089126765916807_" gradientUnits="userSpaceOnUse" x1="10.6019" y1="23.7023" x2="39.6878" y2="23.7023" gradientTransform="matrix(1 0 0 -1 0 50)">
	<stop  offset="0" style="stop-color:#FFD400;stop-opacity:0.7"/>
	<stop  offset="0.2633" style="stop-color:#E5A602;stop-opacity:0.9513"/>
	<stop  offset="0.508" style="stop-color:#C88607"/>
	<stop  offset="0.7367" style="stop-color:#E5A602;stop-opacity:0.9763"/>
	<stop  offset="0.883" style="stop-color:#E4A402"/>
	<stop  offset="1" style="stop-color:#FFD400;stop-opacity:0.7"/>
</linearGradient>
<path style="fill:url(#SVGID_00000181776950284505542940000002477089126765916807_);stroke:#A05D05;stroke-width:1.5;stroke-miterlimit:10;" d="
	M17.5,12.5l7.3,3.9c0.3,0.2,0.7,0.2,1,0l7.4-3.8c0.8-0.4,1.7,0.3,1.5,1.1L33.2,22c-0.1,0.4,0,0.7,0.3,1l5.9,5.8
	c0.6,0.6,0.3,1.7-0.6,1.8l-8.2,1.1c-0.4,0-0.6,0.3-0.8,0.6L26,39.6c-0.4,0.8-1.5,0.8-1.9,0l-3.6-7.5c-0.1-0.3-0.5-0.5-0.8-0.6
	l-8.2-1.3c-0.9-0.1-1.2-1.2-0.6-1.8l6-5.7c0.3-0.2,0.4-0.6,0.3-1l-1.3-8.2C15.8,12.7,16.7,12.1,17.5,12.5z"/>
<linearGradient id="SVGID_00000011015502763985200000000007033689337652227742_" gradientUnits="userSpaceOnUse" x1="20.3001" y1="24.0748" x2="29.8651" y2="24.0748" gradientTransform="matrix(1 0 0 -1 0 50)">
	<stop  offset="0" style="stop-color:#FFD400;stop-opacity:0.7"/>
	<stop  offset="0.2633" style="stop-color:#E5A602;stop-opacity:0.9513"/>
	<stop  offset="0.508" style="stop-color:#C88607"/>
	<stop  offset="0.7367" style="stop-color:#E5A602;stop-opacity:0.9763"/>
	<stop  offset="0.883" style="stop-color:#E4A402"/>
	<stop  offset="1" style="stop-color:#FFD400;stop-opacity:0.7"/>
</linearGradient>
<path style="fill:url(#SVGID_00000011015502763985200000000007033689337652227742_);stroke:#B46D03;stroke-width:0.5;stroke-miterlimit:10;" d="
	M22.6,21.4l2.4,1.3c0.1,0.1,0.2,0.1,0.3,0l2.4-1.2c0.3-0.1,0.6,0.1,0.5,0.4l-0.5,2.7c0,0.1,0,0.2,0.1,0.3l1.9,1.9
	c0.2,0.2,0.1,0.6-0.2,0.6l-2.7,0.4c-0.1,0-0.2,0.1-0.3,0.2l-1.2,2.4c-0.1,0.3-0.5,0.3-0.6,0l-1.2-2.5c0-0.1-0.1-0.2-0.3-0.2
	l-2.7-0.4c-0.3,0-0.4-0.4-0.2-0.6l2-1.9c0.1-0.1,0.1-0.2,0.1-0.3l-0.4-2.7C22,21.5,22.3,21.2,22.6,21.4z"/>
</svg>
