<?xml version="1.0" encoding="utf-8"?>
<!-- Generator: Adobe Illustrator 26.1.0, SVG Export Plug-In . SVG Version: 6.00 Build 0)  -->
<svg version="1.1" id="Слой_1" xmlns="http://www.w3.org/2000/svg" xmlns:xlink="http://www.w3.org/1999/xlink" x="0px" y="0px"
	 viewBox="0 0 50 50" style="enable-background:new 0 0 50 50;" xml:space="preserve">
<style type="text/css">
	.st0{fill:#863A68;}
	.st1{fill:#31397F;}
	.st2{fill:#95232C;}
	.st3{fill:#281835;}
	.st4{fill:#7DC9DE;}
	.st5{fill:#3C88C6;}
	.st6{fill:#EB93AC;}
	.st7{fill:#EC807C;}
	.st8{fill:#425CA5;}
	.st9{fill:#EDF0EB;}
	.st10{fill:#BA74A7;}
	.st11{fill:#59A9D8;}
	.st12{fill:#E24F45;}
	.st13{fill:#E2C9D5;}
	.st14{fill:#965592;}
	.st15{fill:none;stroke:#31397F;stroke-miterlimit:10;}
</style>
<g>
	<polygon class="st0" points="38.8,24.9 38.9,25 38.8,24.9 	"/>
	<path class="st0" d="M8.1,29L9,26.1l4.7,3.4l3.4,0.3l1.5-1.3l-0.4-0.7v0l-2.7-4.3l-6.4,1l-0.2-0.1l-2.7,1.9l-6.1-0.7
		c0,0.8,0.1,1.7,0.2,2.5l1.5,0.2L8.1,29z"/>
	<polygon class="st0" points="32.6,21 32.5,21 32.7,21.2 	"/>
	<path class="st0" d="M41.2,11.4l0.3,2.3l0,0l0.4,2.8l0.7,5.6l-1.1,2.1L38.9,25l-3,0.7l-2.9-4.1l1.3,4.7l7,2.5l3-1.4l-1.6-10.4
		l3.8-4.6c-1.3-2.3-3-4.3-5-6l-4.3,2L41.2,11.4z"/>
	<polygon class="st1" points="25.4,34.4 19.9,30.6 18.6,28.6 17.1,29.8 13.7,29.5 17.7,32.5 19.9,42.1 	"/>
	<path class="st1" d="M18.3,47.6l-1,0.6l0.3,0.6c0.2,0.1,0.4,0.1,0.6,0.2l0.2-0.4L18.3,47.6z"/>
	<path class="st1" d="M6,35.7L8.1,29l-6.3-0.6l-1.5-0.2c0.6,4.6,2.4,8.8,5.2,12.3L6,40.8L5.9,41c0,0,0.1,0.1,0.1,0.1l1.2-1.4L6,35.7
		z"/>
	<path class="st1" d="M47.9,27.1l-3.5,0.9l-0.1-0.7l-3,1.4l-7-2.5l1.6,5.6l-5.1,2.3l1.5,2.6l3.3-3.3l4.8,2l6.4-3.7l1.7,2.4
		c0.9-2.4,1.5-4.9,1.6-7.5L47.9,27.1L47.9,27.1z"/>
	<path class="st2" d="M27.2,2.4l1.1,1.7L27.5,5l-3.3,3.6L23,9.8l-0.4,0.4L20.3,7l0,0l-0.9-1.2l0,0l-0.8-1.1l-1,0.9l-4.5,1.7l2.3,1
		L10.3,13L6.1,9.8L5.6,10l-0.6,0c-0.6,0.8-1.2,1.7-1.7,2.6L4.9,13l-2.6,4.4l4-3.1l3.6,1.9l4.1-4.7l2.5,3.4l0.5-7.5l9,6.3l6.4,7.3
		l0,0l-4.5-6.4l5.2-9.5l4,3.2l4.3-2c-1.2-1.1-2.6-2-4-2.9L36.4,4L27.2,2.4z"/>
	<polygon class="st2" points="14.2,20.8 8.8,24.5 9,24.6 15.5,23.6 14.3,21.9 	"/>
	<path class="st3" d="M26.9,1.9l0.3,0.5L36.4,4l1.2-0.6C34.1,1.4,30,0.1,25.7,0L26.9,1.9z"/>
	<path class="st3" d="M6.1,9.8L5.7,9.6l4.9-3.4l2.6,1.1l4.5-1.7l1-0.9l0-0.1l3.9-4.5C15.4,0.9,9.1,4.6,5.1,10l0.6,0L6.1,9.8z"/>
	<polygon class="st4" points="35.3,14.2 34.5,12.3 38.8,24.9 38.8,24.9 	"/>
	<polygon class="st4" points="29.8,14 31.9,13.2 34.5,12.3 33.3,5.1 	"/>
	<path class="st5" d="M46.6,31.5l-6.4,3.7l-4.4,3.7l-0.4-5.6l-3.3,3.3l1.5,2.7l3.6,4.8L36.9,47c1-0.5,2-1.1,2.9-1.8l-1.1-1.4
		l0.7-1.7l1.2,1.1l0.4,1.1c1.4-1.2,2.7-2.6,3.9-4.1l-0.9,0.1L46.6,31.5z"/>
	<polygon class="st6" points="5.7,9.6 15.4,8.2 13.2,7.2 10.6,6.1 	"/>
	<polygon class="st6" points="24.8,0.7 18.6,4.6 18.6,4.7 19.4,5.8 23.9,5.5 24.9,4.2 27.5,5 27.5,5 28.3,4.1 24.4,3.2 	"/>
	<polygon class="st6" points="21.3,7.6 20.3,7 22.5,10.2 23,9.8 23,9.8 	"/>
	<path class="st4" d="M9.7,42.1l-0.6-1.8l2.4,0.7l1.3-1.6l0.8,0.8l0.5,0.2l0.5,1.2l0.3-3l3.1,0.8l-0.3-6.9l-0.8,4.7l-2-2.7l-1.1,2.4
		l-2.6-1.6l-1.5-4v4L6,35.7l1.3,3.9l0.5,3.3c1,0.9,2,1.8,3.1,2.6l-1.7-2.7L9.7,42.1z"/>
	<polygon class="st4" points="14.3,43.1 13.6,40.2 14.3,43.1 	"/>
	<polygon class="st4" points="10,28.6 10.1,28.8 17.7,32.5 	"/>
	<path class="st7" d="M0.9,25.7l-0.6-2.9l6.1-8.5l-5.6,4.7C0.3,21,0.1,22.9,0.1,25c0,0.2,0,0.4,0,0.7l6.1,0.7L0.9,25.7z"/>
	<path class="st7" d="M3.8,20.9l6.9,2.3l-0.8-6.9l-3.6-1.9L3.8,20.9z M6.5,15.3l3,3.3L6,18.5L6.5,15.3z"/>
	<polygon class="st7" points="14.2,20.8 10.7,23.2 6.2,26.4 8.8,24.5 14.2,20.8 	"/>
	<polygon class="st7" points="13.7,17.2 16.3,18.7 16.5,15 14,11.6 9.9,16.3 14,19.3 	"/>
	<polygon class="st4" points="19.9,30.6 25.4,34.4 25.8,33.9 23.4,31.8 22.3,28.6 18.6,23.1 20.9,26.5 18.6,25.7 18.2,27.9 
		18.6,28.6 	"/>
	<polygon class="st4" points="30.7,34.1 30.7,34.1 35.9,31.8 33.7,32.7 	"/>
	<polygon class="st4" points="24.8,15.2 27.3,16.3 35.9,31.8 34.3,26.2 32.9,21.5 32.7,21.2 32.5,21 26.1,13.7 28,16.6 	"/>
	<polygon class="st4" points="18.4,9.9 18.4,9.9 17.1,7.5 	"/>
	<polygon class="st4" points="13.7,17.2 16.5,21.3 17.3,18.2 18.1,17.1 17.1,7.5 16.5,15 16.3,18.7 	"/>
	<polygon class="st8" points="33.7,32.7 22.4,15.8 27.1,25.7 26.6,27.7 23.4,23.6 21.9,18.7 22.4,15.8 18.4,9.9 18.4,9.9 20.6,14 
		18,20.4 18.6,23.1 22.3,28.6 23.4,31.8 25.8,33.9 28.5,30.1 30.7,34.1 	"/>
	<polygon class="st8" points="27.3,16.3 24.8,15.2 18.4,9.9 22.4,15.8 22.4,15.8 22.4,15.8 33.7,32.7 35.9,31.8 	"/>
	<polygon class="st9" points="13.7,29.5 9,26.1 8.1,29 6,35.7 9.7,35.4 9.7,31.4 8.6,28.6 9.9,27.7 10,28.6 17.7,32.5 	"/>
	<polygon class="st9" points="10.1,28.8 10.1,28.8 10,28.6 9.9,27.7 8.6,28.6 9.7,31.4 11.1,35.4 	"/>
	<path class="st8" d="M26.3,45.8l-5-2l-1.5,2.5l0,0.2l-0.2,0.1l-0.3,0.6l0.4,2c1.7,0.4,3.5,0.6,5.4,0.6c1.6,0,3.1-0.2,4.7-0.4h-3.4
		V45.8z"/>
	<path class="st8" d="M18.3,49c0.1,0,0.2,0.1,0.3,0.1l-0.1-0.5L18.3,49z"/>
	<path class="st8" d="M33.7,43.8l0.6-0.6l0-0.2l-5.9-12.9l2.9,8.7l-1.4,6.9l0.5,0.9v2.8c1.6-0.3,3-0.8,4.5-1.4l-0.4-2.6L33.7,43.8z"
		/>
	<polygon class="st4" points="19.2,47 19.2,47.3 19.6,46.7 	"/>
	<polygon class="st4" points="25.4,34.4 19.9,42.1 19.9,42.1 19.2,43 19.8,46.4 21.2,43.9 26.3,45.8 28.5,43 26.6,39.7 24.1,41 
		28.5,30.1 25.8,33.9 	"/>
	<polygon class="st9" points="24.1,41 26.6,39.7 28.5,43 28.5,30.1 	"/>
	<polygon class="st9" points="18.4,9.9 24.8,15.2 28,16.6 26.1,13.7 17.1,7.5 	"/>
	<path class="st5" d="M47.6,18.5l-0.3-1.4L46,15.8L44.5,17l-0.1,4.7l0,0l0,2.4l-0.1,3.9l0.1-5.1l1.6-1.2l2.9,2.4L47.9,27l2-0.6
		c0-0.5,0-0.9,0-1.4c0-2.2-0.3-4.4-0.9-6.5L48.7,18L47.6,18.5z"/>
	<path class="st5" d="M47.5,14.1c-0.3-0.6-0.6-1.1-0.9-1.6L46,15.8L47.5,14.1z"/>
	<polygon class="st5" points="27.1,25.7 22.4,15.8 22.4,15.8 22.4,15.8 21.9,18.7 	"/>
	<polygon class="st4" points="21.9,18.7 23.4,23.6 26.6,27.7 27.1,25.7 	"/>
	<polygon class="st6" points="32.9,21.5 35.8,25.7 34.7,24.1 33.7,18.4 37.4,25.2 35.8,25.7 38.9,25 38.8,24.9 34.5,12.3 35.9,16.2 
		32.3,13.1 34.5,12.3 31.9,13.2 29.8,14 29.7,14.2 28.1,14.6 32.6,21 32.7,21.2 	"/>
	<polygon class="st10" points="35.9,16.2 34.5,12.3 32.3,13.1 	"/>
	<polygon class="st11" points="34.5,12.3 35.3,14.2 35.9,15 36.7,13.9 38.4,14.2 33.3,5.1 	"/>
	<polygon class="st9" points="6.5,15.3 6,18.5 9.6,18.7 	"/>
	<polygon class="st9" points="40.2,35.2 35.5,33.3 35.9,38.9 	"/>
	<path class="st9" d="M43.9,40.2l0.9-0.1c1.4-1.9,2.6-3.9,3.5-6.2l-1.7-2.4L43.9,40.2z"/>
	<path class="st9" d="M43.5,21l0.9,0.7l0.1-4.7l1.5-1.2l0.6-3.3c0-0.1-0.1-0.2-0.1-0.2l-3.8,4.6L43.5,21z"/>
	<polygon class="st9" points="11.7,11.7 5.7,9.6 6.1,9.8 10.3,13 15.4,8.2 	"/>
	<polygon class="st9" points="5.7,9.6 7.7,9.3 9.7,10.2 15.4,8.2 	"/>
	<path class="st9" d="M24.8,0.7L24.7,0c-0.7,0-1.5,0-2.2,0.1l-3.9,4.5L24.8,0.7z"/>
	<polygon class="st5" points="28.5,43 29.9,45.7 31.4,38.8 28.5,30.1 	"/>
	<path class="st5" d="M34.4,43.2l-0.6,0.6l0.8,1.5l0.4,2.6c0.6-0.2,1.1-0.5,1.7-0.8l-2-2.9L34.4,43.2z"/>
	<polygon class="st5" points="28.5,30.1 34.4,43 33.7,39.3 32.2,36.6 30.7,34.1 30.7,34.1 	"/>
	<polygon class="st12" points="14.2,20.8 14,19.3 9.9,16.3 10.7,23.2 	"/>
	<polygon class="st9" points="18.1,17.1 17.3,18.2 16.5,21.3 13.7,17.2 14,19.3 14.2,20.8 14.2,20.8 14.3,21.9 15.5,23.6 18.2,27.9 
		18.2,27.9 18.6,25.7 20.9,26.5 18.6,23.1 18,20.4 20.6,14 18.4,9.9 17.1,7.5 	"/>
	<polygon class="st12" points="10.7,23.2 3.8,20.9 3.2,22.4 6.2,26.4 	"/>
	<polygon class="st5" points="10.1,28.8 10.1,28.8 11.1,35.4 13.7,36.9 14.8,34.5 16.8,37.2 17.7,32.5 	"/>
	<path class="st5" d="M6,41.1c0.5,0.6,1.1,1.2,1.7,1.8l-0.5-3.3L6,41.1z"/>
	<path class="st1" d="M29.9,45.7L28.5,43l-2.2,2.8v3.7h3.4c0.2,0,0.5-0.1,0.7-0.2v-2.8L29.9,45.7z"/>
	<path class="st8" d="M39.4,42.1l-0.7,1.7l1.1,1.4c0.4-0.3,0.8-0.6,1.2-1l-0.4-1.1L39.4,42.1z"/>
	<path class="st1" d="M19.2,47l-0.8,0.6l0.2,1.1l0.1,0.5c0.4,0.1,0.7,0.2,1.1,0.3l-0.4-2L19.2,47z"/>
	<path class="st1" d="M33.7,39.3l0.6,3.7l0,0.2l0.2,1l2,2.9c0.1-0.1,0.2-0.1,0.3-0.2l0.5-2.8L33.7,39.3z"/>
	<path class="st8" d="M5.4,40.4c0.1,0.2,0.3,0.4,0.4,0.6L6,40.8L5.4,40.4z"/>
	<polygon class="st9" points="38.4,14.2 39.8,17.9 39.5,12.8 41.5,13.7 41.2,11.4 37.3,8.3 33.3,5.1 	"/>
	<path class="st2" d="M6.3,14.4l-4,3.1L2,17.9l-1.1,0.7c0,0.2-0.1,0.3-0.1,0.5L6.3,14.4z"/>
	<rect x="12.6" y="45.4" class="st5" width="4.8" height="0"/>
	<polygon class="st5" points="19.2,43 19.9,42.1 19.9,42.1 17.7,32.5 18,39.3 14.8,38.5 14.5,41.5 17.4,48.2 18.3,47.6 19.2,47 
		19.6,46.7 19.8,46.6 19.8,46.4 	"/>
	<path class="st1" d="M12.7,40.2l0.1-0.8L11.4,41l-2.4-0.7l0.6,1.8l-0.5,0.6l1.7,2.7c1.5,1,3.1,1.9,4.8,2.6L12.7,40.2z"/>
	<rect x="15.6" y="47.7" transform="matrix(0.9653 -0.2612 0.2612 0.9653 -11.9682 5.7473)" class="st1" width="0" height="0.5"/>
	<path class="st1" d="M14.5,41.5L14,40.4l-0.5-0.2l0.8,2.9l1.2,4.6l0.1,0.5c0.6,0.3,1.3,0.5,1.9,0.7l-0.3-0.6L14.5,41.5z"/>
	<polygon class="st7" points="33.7,18.4 34.7,24.1 35.8,25.7 37.4,25.2 	"/>
	<polygon class="st7" points="40.2,14.2 39.8,17.9 38.4,14.2 36.7,13.9 35.9,15 35.3,14.2 38.8,24.9 38.9,25 41.5,24.1 42.6,22 
		41.8,16.4 	"/>
	<polygon class="st7" points="29.8,14 33.3,5.1 28.1,14.6 29.7,14.2 	"/>
	<polygon class="st13" points="39.5,12.8 39.8,17.9 40.2,14.2 41.8,16.4 41.5,13.7 41.5,13.7 	"/>
	<polygon class="st14" points="44.5,24.1 44.5,21.7 44.5,21.7 43.5,21 42.7,16.9 44.3,27.3 44.4,28.1 	"/>
	<polygon class="st1" points="47.9,27 49,24.2 46.1,21.8 44.5,23 44.4,28.1 47.9,27.1 	"/>
	<polygon class="st7" points="7.7,9.3 5.7,9.6 11.7,11.7 15.4,8.2 9.7,10.2 	"/>
	<path class="st11" d="M48.7,18l0.4,0.5c-0.3-1.2-0.8-2.4-1.3-3.6l-0.3,3.6L48.7,18z"/>
	<path class="st4" d="M47.3,17.1l0.3,1.4l0.3-3.6c-0.1-0.3-0.2-0.5-0.4-0.8L46,15.8L47.3,17.1z"/>
	<polygon class="st7" points="22.7,6.9 23.9,5.5 19.4,5.8 19.4,5.8 20.3,7 20.3,7 21.3,7.6 23,9.8 23,9.8 24.2,8.5 	"/>
	<polygon class="st12" points="24.9,4.2 23.9,5.5 22.7,6.9 24.2,8.5 27.5,5 27.5,5 	"/>
	<path class="st14" d="M26.6,2.8l0.3-0.9L25.7,0c-0.2,0-0.4,0-0.6,0c-0.1,0-0.2,0-0.4,0l0.1,0.6L26.6,2.8z"/>
	<polygon class="st10" points="26.6,2.8 24.8,0.7 24.4,3.2 28.3,4.1 27.2,2.4 26.9,1.9 	"/>
	<polygon class="st2" points="0.2,22.9 0.9,25.7 6.2,26.4 3.2,22.4 3.8,20.9 6.3,14.4 	"/>
	<path class="st1" d="M14.3,43.1l-0.8-2.9l-0.8-0.8l-0.1,0.8l3,7.9c0,0,0,0,0.1,0l-0.1-0.5L14.3,43.1z"/>
	<path class="st2" d="M2,17.9l0.3-0.4L4.9,13l-1.6-0.4c-1.1,1.8-1.9,3.8-2.4,5.9L2,17.9z"/>
</g>
<circle class="st15" cx="25.1" cy="25" r="24.5"/>
</svg>
