<?xml version="1.0" encoding="utf-8"?>
<!-- Generator: Adobe Illustrator 26.1.0, SVG Export Plug-In . SVG Version: 6.00 Build 0)  -->
<svg version="1.1" id="Слой_1" xmlns="http://www.w3.org/2000/svg" xmlns:xlink="http://www.w3.org/1999/xlink" x="0px" y="0px"
	 viewBox="0 0 400 400" style="enable-background:new 0 0 400 400;" xml:space="preserve">
<style type="text/css">
	.st0{fill:#E84A1D;}
	.st1{fill:#020203;}
	.st2{fill:#FFFFFF;}
</style>
<g>
	<circle class="st0" cx="199.7" cy="199.7" r="190.7"/>
	<path class="st1" d="M199.7,18c48.5,0,94.1,18.9,128.5,53.2c34.3,34.3,53.2,79.9,53.2,128.5s-18.9,94.1-53.2,128.5
		c-34.3,34.3-79.9,53.2-128.5,53.2s-94.1-18.9-128.5-53.2C36.9,293.8,18,248.2,18,199.7s18.9-94.1,53.2-128.5
		C105.5,36.9,151.1,18,199.7,18 M199.7,0C89.4,0,0,89.4,0,199.7s89.4,199.7,199.7,199.7s199.7-89.4,199.7-199.7S309.9,0,199.7,0
		L199.7,0z"/>
</g>
<g>
	<path class="st1" d="M136,186.2c-17.3,0-31.3-14-31.3-31.3s14-31.3,31.3-31.3s31.3,14,31.3,31.3S153.3,186.2,136,186.2z"/>
	<path class="st1" d="M136,124.1c17,0,30.8,13.8,30.8,30.8S153,185.7,136,185.7s-30.8-13.8-30.8-30.8S119,124.1,136,124.1
		 M136,123.1c-17.6,0-31.8,14.2-31.8,31.8s14.2,31.8,31.8,31.8s31.8-14.2,31.8-31.8S153.6,123.1,136,123.1L136,123.1z"/>
</g>
<g>
	<circle class="st1" cx="271" cy="154.9" r="31.3"/>
	<path class="st1" d="M271,124.1c17,0,30.8,13.8,30.8,30.8S288,185.7,271,185.7s-30.8-13.8-30.8-30.8S254,124.1,271,124.1
		 M271,123.1c-17.6,0-31.8,14.2-31.8,31.8s14.2,31.8,31.8,31.8c17.6,0,31.8-14.2,31.8-31.8S288.6,123.1,271,123.1L271,123.1z"/>
</g>
<g>
	<path class="st1" d="M119.7,305.9l-35.6-35.6c-3.7-3.7-3.7-9.7,0-13.4l0,0c3.7-3.7,9.7-3.7,13.4,0l35.6,35.6
		c3.7,3.7,3.7,9.7,0,13.4h0C129.4,309.6,123.4,309.6,119.7,305.9z"/>
</g>
<g>
	<path class="st1" d="M133.9,305.9l35.6-35.6c3.7-3.7,3.7-9.7,0-13.4l0,0c-3.7-3.7-9.7-3.7-13.4,0l-35.6,35.6
		c-3.7,3.7-3.7,9.7,0,13.4h0C124.2,309.6,130.2,309.6,133.9,305.9z"/>
</g>
<g>
	<path class="st1" d="M192.4,305.9l-35.6-35.6c-3.7-3.7-3.7-9.7,0-13.4l0,0c3.7-3.7,9.7-3.7,13.4,0l35.6,35.6
		c3.7,3.7,3.7,9.7,0,13.4l0,0C202.1,309.6,196.1,309.6,192.4,305.9z"/>
</g>
<g>
	<path class="st1" d="M206.7,305.9l35.6-35.6c3.7-3.7,3.7-9.7,0-13.4l0,0c-3.7-3.7-9.7-3.7-13.4,0l-35.6,35.6
		c-3.7,3.7-3.7,9.7,0,13.4h0C197,309.6,203,309.6,206.7,305.9z"/>
</g>
<g>
	<path class="st1" d="M265.2,305.9l-35.6-35.6c-3.7-3.7-3.7-9.7,0-13.4l0,0c3.7-3.7,9.7-3.7,13.4,0l35.6,35.6
		c3.7,3.7,3.7,9.7,0,13.4h0C274.9,309.6,268.9,309.6,265.2,305.9z"/>
</g>
<g>
	<path class="st1" d="M279.4,305.9l35.6-35.6c3.7-3.7,3.7-9.7,0-13.4l0,0c-3.7-3.7-9.7-3.7-13.4,0L266,292.5
		c-3.7,3.7-3.7,9.7,0,13.4l0,0C269.7,309.6,275.7,309.6,279.4,305.9z"/>
</g>
<g>
	<circle class="st2" cx="272.4" cy="156.3" r="12.2"/>
</g>
<g>
	<circle class="st2" cx="136" cy="156.3" r="12.2"/>
</g>
</svg>
