<?xml version="1.0" encoding="utf-8"?>
<!-- Generator: Adobe Illustrator 26.1.0, SVG Export Plug-In . SVG Version: 6.00 Build 0)  -->
<svg version="1.1" id="Слой_1" xmlns="http://www.w3.org/2000/svg" xmlns:xlink="http://www.w3.org/1999/xlink" x="0px" y="0px"
	 viewBox="0 0 50 50" style="enable-background:new 0 0 50 50;" xml:space="preserve">
<style type="text/css">
	.st0{fill:#DC2137;}
	.st1{fill:#020203;}
	.st2{fill:#FFFFFF;}
</style>
<g>
	<path class="st0" d="M-210.1,308.7c-26.4,0-47.9-21.5-47.9-47.9c0-26.4,21.5-47.9,47.9-47.9s47.9,21.5,47.9,47.9
		C-162.2,287.2-183.7,308.7-210.1,308.7z"/>
	<path class="st1" d="M-210.1,213.4c26.1,0,47.4,21.3,47.4,47.4s-21.3,47.4-47.4,47.4s-47.4-21.3-47.4-47.4
		S-236.2,213.4-210.1,213.4 M-210.1,212.4c-26.7,0-48.4,21.7-48.4,48.4c0,26.7,21.7,48.4,48.4,48.4s48.4-21.7,48.4-48.4
		C-161.7,234.1-183.3,212.4-210.1,212.4L-210.1,212.4z"/>
</g>
<g>
	<path class="st1" d="M-225.5,257.2c-4,0-7.2-3.2-7.2-7.2c0-4,3.2-7.2,7.2-7.2c4,0,7.2,3.2,7.2,7.2
		C-218.3,254-221.5,257.2-225.5,257.2z"/>
	<path class="st1" d="M-225.5,243.3c3.7,0,6.7,3,6.7,6.7s-3,6.7-6.7,6.7s-6.7-3-6.7-6.7S-229.2,243.3-225.5,243.3 M-225.5,242.3
		c-4.3,0-7.7,3.5-7.7,7.7s3.5,7.7,7.7,7.7s7.7-3.5,7.7-7.7S-221.2,242.3-225.5,242.3L-225.5,242.3z"/>
</g>
<g>
	<path class="st1" d="M-192.8,257.2c-4,0-7.2-3.2-7.2-7.2c0-4,3.2-7.2,7.2-7.2c4,0,7.2,3.2,7.2,7.2
		C-185.6,254-188.8,257.2-192.8,257.2z"/>
	<path class="st1" d="M-192.8,243.3c3.7,0,6.7,3,6.7,6.7s-3,6.7-6.7,6.7s-6.7-3-6.7-6.7S-196.5,243.3-192.8,243.3 M-192.8,242.3
		c-4.3,0-7.7,3.5-7.7,7.7s3.5,7.7,7.7,7.7s7.7-3.5,7.7-7.7S-188.5,242.3-192.8,242.3L-192.8,242.3z"/>
</g>
<g>
	<path class="st1" d="M-229.4,286.6l-8.6-8.6c-0.9-0.9-0.9-2.4,0-3.2h0c0.9-0.9,2.4-0.9,3.2,0l8.6,8.6c0.9,0.9,0.9,2.4,0,3.2l0,0
		C-227.1,287.5-228.5,287.5-229.4,286.6z"/>
</g>
<g>
	<path class="st1" d="M-226,286.6l8.6-8.6c0.9-0.9,0.9-2.4,0-3.2l0,0c-0.9-0.9-2.4-0.9-3.2,0l-8.6,8.6c-0.9,0.9-0.9,2.4,0,3.2l0,0
		C-228.3,287.5-226.9,287.5-226,286.6z"/>
</g>
<g>
	<path class="st1" d="M-211.8,286.6l-8.6-8.6c-0.9-0.9-0.9-2.4,0-3.2l0,0c0.9-0.9,2.4-0.9,3.2,0l8.6,8.6c0.9,0.9,0.9,2.4,0,3.2h0
		C-209.5,287.5-210.9,287.5-211.8,286.6z"/>
</g>
<g>
	<path class="st1" d="M-208.4,286.6l8.6-8.6c0.9-0.9,0.9-2.4,0-3.2l0,0c-0.9-0.9-2.4-0.9-3.2,0l-8.6,8.6c-0.9,0.9-0.9,2.4,0,3.2l0,0
		C-210.7,287.5-209.3,287.5-208.4,286.6z"/>
</g>
<g>
	<path class="st1" d="M-194.2,286.6l-8.6-8.6c-0.9-0.9-0.9-2.4,0-3.2h0c0.9-0.9,2.4-0.9,3.2,0l8.6,8.6c0.9,0.9,0.9,2.4,0,3.2l0,0
		C-191.8,287.5-193.3,287.5-194.2,286.6z"/>
</g>
<g>
	<path class="st1" d="M-190.7,286.6l8.6-8.6c0.9-0.9,0.9-2.4,0-3.2l0,0c-0.9-0.9-2.4-0.9-3.2,0l-8.6,8.6c-0.9,0.9-0.9,2.4,0,3.2l0,0
		C-193.1,287.5-191.6,287.5-190.7,286.6z"/>
</g>
<g>
	<circle class="st0" cx="25" cy="25" r="24.5"/>
	<path class="st1" d="M25,1c13.2,0,24,10.8,24,24S38.2,49,25,49S1,38.2,1,25S11.8,1,25,1 M25,0C11.2,0,0,11.2,0,25s11.2,25,25,25
		s25-11.2,25-25S38.8,0,25,0L25,0z"/>
</g>
<g>
	<path class="st1" d="M17,22.9c-1.9,0-3.5-1.6-3.5-3.5c0-1.9,1.6-3.5,3.5-3.5c1.9,0,3.5,1.6,3.5,3.5C20.5,21.3,19,22.9,17,22.9z"/>
	<path class="st1" d="M17,16.4c1.6,0,3,1.3,3,3s-1.3,3-3,3s-3-1.3-3-3S15.4,16.4,17,16.4 M17,15.4c-2.2,0-4,1.8-4,4c0,2.2,1.8,4,4,4
		s4-1.8,4-4C21,17.2,19.2,15.4,17,15.4L17,15.4z"/>
</g>
<g>
	<path class="st1" d="M33.9,22.9c-1.9,0-3.5-1.6-3.5-3.5c0-1.9,1.6-3.5,3.5-3.5s3.5,1.6,3.5,3.5C37.4,21.3,35.9,22.9,33.9,22.9z"/>
	<path class="st1" d="M33.9,16.4c1.6,0,3,1.3,3,3s-1.3,3-3,3s-3-1.3-3-3S32.3,16.4,33.9,16.4 M33.9,15.4c-2.2,0-4,1.8-4,4
		c0,2.2,1.8,4,4,4c2.2,0,4-1.8,4-4C37.9,17.2,36.1,15.4,33.9,15.4L33.9,15.4z"/>
</g>
<g>
	<path class="st1" d="M15,38.3l-4.5-4.5c-0.5-0.5-0.5-1.2,0-1.6l0,0c0.5-0.5,1.2-0.5,1.6,0l4.5,4.5c0.5,0.5,0.5,1.2,0,1.6l0,0
		C16.2,38.8,15.5,38.8,15,38.3z"/>
</g>
<g>
	<path class="st1" d="M16.7,38.3l4.5-4.5c0.5-0.5,0.5-1.2,0-1.6l0,0c-0.5-0.5-1.2-0.5-1.6,0l-4.5,4.5c-0.5,0.5-0.5,1.2,0,1.6l0,0
		C15.6,38.8,16.3,38.8,16.7,38.3z"/>
</g>
<g>
	<path class="st1" d="M24.1,38.3l-4.5-4.5c-0.5-0.5-0.5-1.2,0-1.6l0,0c0.5-0.5,1.2-0.5,1.6,0l4.5,4.5c0.5,0.5,0.5,1.2,0,1.6l0,0
		C25.3,38.8,24.6,38.8,24.1,38.3z"/>
</g>
<g>
	<path class="st1" d="M25.9,38.3l4.5-4.5c0.5-0.5,0.5-1.2,0-1.6l0,0c-0.5-0.5-1.2-0.5-1.6,0l-4.5,4.5c-0.5,0.5-0.5,1.2,0,1.6l0,0
		C24.7,38.8,25.4,38.8,25.9,38.3z"/>
</g>
<g>
	<path class="st1" d="M33.2,38.3l-4.5-4.5c-0.5-0.5-0.5-1.2,0-1.6l0,0c0.5-0.5,1.2-0.5,1.6,0l4.5,4.5c0.5,0.5,0.5,1.2,0,1.6l0,0
		C34.4,38.8,33.7,38.8,33.2,38.3z"/>
</g>
<g>
	<path class="st1" d="M35,38.3l4.5-4.5c0.5-0.5,0.5-1.2,0-1.6l0,0c-0.5-0.5-1.2-0.5-1.6,0l-4.5,4.5c-0.5,0.5-0.5,1.2,0,1.6l0,0
		C33.8,38.8,34.5,38.8,35,38.3z"/>
</g>
<g>
	<circle class="st2" cx="34.1" cy="19.6" r="1.5"/>
</g>
<g>
	<circle class="st2" cx="17" cy="19.6" r="1.5"/>
</g>
</svg>
