<?xml version="1.0" encoding="utf-8"?>
<!-- Generator: Adobe Illustrator 26.1.0, SVG Export Plug-In . SVG Version: 6.00 Build 0)  -->
<svg version="1.1" id="Слой_1" xmlns="http://www.w3.org/2000/svg" xmlns:xlink="http://www.w3.org/1999/xlink" x="0px" y="0px"
	 viewBox="0 0 50 50" style="enable-background:new 0 0 50 50;" xml:space="preserve">
<style type="text/css">
	.st0{clip-path:url(#SVGID_00000006695822090908590630000005725489938669566876_);}
	.st1{fill:#283431;}
	.st2{fill:#E98A37;}
	.st3{fill:#DDCEBF;stroke:#3A3A3A;stroke-width:0.25;stroke-miterlimit:10;}
	.st4{fill:#EAD8C6;}
	.st5{fill:#26303B;}
	.st6{fill:#FFFFFF;}
	.st7{fill:none;stroke:#000000;stroke-width:0.75;stroke-miterlimit:10;}
</style>
<g>
	<defs>
		<circle id="SVGID_1_" cx="25" cy="25" r="25"/>
	</defs>
	<clipPath id="SVGID_00000081628228640150414120000004526091501337737608_">
		<use xlink:href="#SVGID_1_"  style="overflow:visible;"/>
	</clipPath>
	<g style="clip-path:url(#SVGID_00000081628228640150414120000004526091501337737608_);">
		<path class="st1" d="M24.6-41C39.7-41,52-28.7,52-13.6v72.5H-2.8v-72.5C-2.8-28.7,9.4-41,24.6-41z"/>
		<path class="st2" d="M25.1,20c-0.3-0.4-0.4-0.8-1-2.9c-0.5-1.8-0.5-2-0.5-2.2c0-0.4,0-1.3,0.6-2c0.3-0.4,0.8-0.6,1.6-1
			c0.9-0.4,1-0.3,1.8-0.7c1.1-0.5,1.6-0.7,1.9-1.3C30,8.8,29,7.2,28.8,7c-0.6-0.9-1.3-1.4-1.7-1.6C26,4.6,25.5,4.8,25,4.1
			c-0.1-0.1-0.7-0.9-0.4-1.8c0.1-0.2,0.2-0.4,1.4-1.4c1-0.7,1.5-1,1.9-1.1c1.3-0.4,1.4-0.3,2-0.7c0.8-0.5,1-1.8,0.1-8.5
			c-0.4-3.3-0.6-3.7-0.8-3.7c-0.6-0.1-1.6,2.7-1.7,5.4c0,1.1-0.2,1.4-0.1,1.8c0,0.3,0.1,0.3,0.1,0.6c0.1,1-0.6,1.8-1,2.3
			c-0.5,0.6-1,0.9-1.6,1.4c-0.6,0.5-0.6,0.4-1.6,1.1c-0.1,0.1-0.7,0.5-1.5,1.2c-0.6,0.5-0.9,0.9-0.9,1.1c-0.3,0.9,0.6,2,0.8,2.2
			c0.5,0.6,1.2,0.9,2.5,1.7c1,0.5,1.5,0.7,2.1,1.4c0.3,0.3,0.6,0.7,0.6,1.2c0,0.5-0.3,0.8-0.8,1.3c-0.2,0.2-0.5,0.5-1.7,1.4
			c-1,0.7-1.1,0.7-1.4,1c-0.2,0.2-0.8,0.8-1.1,1.7c-0.3,1.2,0.2,2.3,1.1,3.9c0.7,1.3,1.5,2.1,2.1,2.7c0.1,0.1,0.6,0.6,0.6,0.5
			C25.6,20.7,25.3,20.3,25.1,20z"/>
		<path class="st2" d="M52-13.6c0-1.2-0.1-2.4-0.2-3.6c-0.3-0.2-0.4-0.3-0.9-0.5c-2-0.9-3.2,0-3.8,0.4c-0.7,0.4-1.1,1.2-1.1,1.9
			c-0.1,0.8,0.4,1.5,1.2,2.9c0.2,0.4,0.6,1,1.1,1.9c0.4,0.8,0.6,1.1,0.5,1.5C48.6-8.4,48-8,47.7-7.8c-0.5,0.3-1.1,0.4-2.2,0.5
			c-1,0.1-2,0.1-2.4,0.1c-0.9,0-1,0-1.4,0C41-7,40.1-6.9,39.7-6.3c-0.6,1,0.5,2.7,0.9,3.3c0.3,0.5,0.9,1.2,1.5,2
			c0.5,0.6,0.7,0.9,0.7,1.4c0.1,0.8-0.5,1.5-0.6,1.6c-0.3,0.3-0.6,0.5-1.4,0.7C40,3,39.3,3,37.7,3.1c-1.8,0.1-2.1,0.1-2.6,0.4
			C35,3.5,34.3,4,34.1,4.9c-0.1,0.7,0.1,1.2,0.4,2c0.3,0.6,0.7,1.1,1.1,1.9c0.4,0.8,0.6,1.1,0.6,1.4c0,0.7,0,0.5,0,1.4
			c0,0.6-0.1,0.9-0.2,1c-0.3,0.3-0.6,0.4-1.3,0.3c0,0-0.8-0.1-2.2,0c-0.9,0-1.4,0-2,0.2c-0.6,0.2-1.3,0.4-1.7,1
			c-0.3,0.5-0.4,1-0.4,1.7c0,0.4,0,0.7,0,1.2c0,0.7,0.1,1.2,0.2,1.8c0.2,0.8,0.4,1.7,0.6,1.7c0.4,0,1.3-1.8,1-3.4
			c0-0.2-0.2-0.7-0.1-1.4c0.1-0.8,0.4-1,0.5-1.1c0.2-0.1,0.4-0.1,0.6-0.1c1.3,0,1.9,0,2.1,0c0.1,0,0.8,0,2.2,0.1
			c2.1,0.1,2.3,0,2.5-0.1c0.8-0.5,1-1.7,0.9-2.5c0-0.4-0.3-1-0.9-2.2c-0.4-0.9-0.6-1.1-0.7-1.7c0-0.2-0.2-0.8-0.1-1.5
			c0.1-0.7,0.1-1.1,0.3-1.3c0.4-0.4,0.9-0.3,1.8-0.2c0.9,0.1,1.8,0,2.6,0c2.2,0.1,3.2,0.1,3.5-0.1c1-0.8,1-3.4,0-4.8
			c-0.4-0.5-0.9-0.8-1.2-1.6c-0.1-0.3-0.4-1.1-0.1-1.8c0.3-0.7,0.9-1,1.3-1.1c0.7-0.3,1.3-0.3,3.5-0.1c2,0.2,2.4,0.2,3,0
			c0,0,0,0,0,0V-13.6z"/>
		<g>
			<g>
				<path class="st2" d="M50.7,18.5c-0.6-0.3-0.6-0.7-1.1-0.9c-0.6-0.3-1.4,0-1.8,0.4c-0.6,0.4-0.8,1-1,1.7
					c-0.2,0.5-0.2,0.7-0.4,2.4c-0.2,1.4-0.3,1.6-0.4,1.9c-0.2,0.3-0.6,0.9-1.4,1.1c-0.8,0.3-1.5,0-1.7,0c-0.4-0.1-0.7-0.3-1.7-1.5
					c-0.9-0.9-0.8-1.2-1.4-1.6c-0.3-0.2-0.9-0.6-1.7-0.5c-0.4,0.1-0.8,0.4-1.5,1c-0.7,0.6-1.2,1.1-1.3,1.3c-0.9,1-1,1.3-1.6,1.8
					c-0.8,0.6-1.5,0.7-1.5,0.8c0,0.1,0.8,0.1,1.4,0c1.1-0.2,1.8-0.8,2.1-1.1c0.8-0.6,1.3-1.3,1.3-1.3c0.3-0.4,0.4-0.5,0.6-0.7
					c0.7-0.3,1.5,0.1,1.6,0.2c0.1,0.1,0.2,0.1,1,0.9c0.6,0.7,0.9,1,0.9,1c0.8,0.8,0.8,0.9,1.2,1.2c0.8,0.8,1.2,1.2,1.4,1.3
					c1,0.3,2.2-0.8,2.3-1c0.1-0.1,0.4-0.4,1.1-1.7c0.4-0.9,0.4-1,0.9-1.9c0.3-0.6,0.6-1,1-1.3c0.3-0.3,0.5-0.4,0.9-0.5
					c0.2,0,0.5,0,1.4,0.4c0.4,0.1,0.6,0.2,0.8,0.3v-3.2c-0.1,0-0.2,0-0.3-0.1C51.1,18.6,51,18.7,50.7,18.5z"/>
			</g>
		</g>
		<g>
			<g>
				<path class="st2" d="M49.8,13.3c-1.7-1-1.8-1.2-2.4-1.4c-0.3-0.1-1.5-0.4-2.5,0.3c-0.7,0.5-0.8,1.3-0.9,1.9
					c-0.1,0.4-0.1,0.6,0,3c0,0.8,0,1.3-0.2,1.8c-0.1,0.3-0.3,0.9-0.9,1.2c-0.6,0.4-1.3,0.3-1.7,0.3c-0.7-0.1-1.1-0.3-1.8-0.7
					c-1.2-0.6-1.2-0.9-2-1.3c-0.9-0.4-1.6-0.3-1.8-0.3c-0.5,0-1.2,0.1-1.7,0.6c-0.2,0.3-0.3,0.6-0.4,1.3c-0.1,0.4-0.1,0.7-0.1,1.3
					c0,1.1-0.1,1.2,0,1.3c0.3,0.2,1.3-0.5,1.9-1.4c0.3-0.4,0.3-0.7,0.6-0.9c0.4-0.3,1-0.2,1.5-0.2c0.2,0,0.8,0.1,1.7,0.6
					c0.5,0.3,0.5,0.4,1.2,0.9c1,0.8,1.5,1.2,2,1.3c0.7,0.2,1.6,0.1,2.3-0.4c0.6-0.5,0.8-1.1,1.2-2.2c0.1-0.5,0.4-1.4,0.4-2.6
					c0-1-0.2-1.4,0.1-2.2c0.1-0.3,0.3-0.8,0.7-1c0.4-0.2,0.7-0.1,1.4,0c0.8,0.2,1.3,0.3,1.8,0.7c0.6,0.5,0.4,0.9,1.1,1.5
					c0.1,0.1,0.5,0.4,0.9,0.5v-2.9c-0.1,0-0.2,0-0.3-0.1C51.3,14.2,50.8,13.9,49.8,13.3z"/>
			</g>
		</g>
		<g>
			<g>
				<path class="st2" d="M-0.9-11.6c1.2,0,1.7-0.3,3-0.2c1,0,1.5,0.1,1.9,0.4c0.6,0.5,0.6,1.4,0.4,2.1C4.4-8.8,4.2-8.5,3.9-8
					C3.6-7.6,2.3-5.9,2.4-4.1c0,0.2,0.1,1.8,1.2,2.5c0.6,0.4,1.3,0.4,2.7,0.3c1,0,1.4-0.2,2.4-0.1c1.1,0.1,1.4,0.4,1.5,0.5
					c0.5,0.6,0.4,1.4,0.3,1.7c-0.1,0.5-0.3,0.8-0.9,1.8C8.8,3.9,8.5,4.5,8.4,4.6C8.1,5.5,7.8,7.1,8.6,8c0.7,0.7,1.9,0.7,3,0.7
					c1.1,0,1.5-0.3,2.7-0.2C15,8.6,15.6,8.7,16,9.1c0.8,0.7,0.6,1.9,0.6,2c-0.1,0.7-0.5,1.2-0.8,1.5c-0.1,0.2-1.8,2.4-1.6,4.5
					c0.2,1.8,1.9,3.4,3.6,3.5c0.8,0.1,1.4-0.2,1.4-0.3c0-0.2-2-0.3-2.9-1.5c0,0,0-0.1,0-0.1c-0.5-0.7-0.6-1.5-0.7-1.8
					c-0.1-1.4,0.6-2.4,0.9-2.9c0.7-1,1.1-0.9,1.9-2.1c0.4-0.7,0.9-1.3,0.8-2.2c0-0.2-0.1-1-0.7-1.6c-0.3-0.3-0.6-0.4-2.5-0.8
					c-1-0.2-1.7-0.3-2.7-0.6C12,6.5,11.7,6.3,11.5,6c-0.4-0.6-0.2-1.4-0.1-1.7c0-0.2,0.1-0.5,0.6-1.2c0.5-0.8,0.8-1,1.2-1.6
					c0.5-0.7,1-1.4,1.1-2.4c0-0.3,0.1-1.4-0.6-2.2c-0.7-0.8-1.8-0.9-3.2-1C8.5-4.2,7.7-3.8,7.1-4.4C6.6-4.9,6.6-5.6,6.6-5.8
					c0-0.4,0.1-0.9,0.9-2c0.6-1,0.9-1.2,1.5-2.2c1.1-1.6,1.1-1.9,1.1-2.1c-0.1-0.9-0.9-1.7-1.6-2c-0.8-0.3-1.1,0-2.7-0.1
					c-0.9-0.1-1.7-0.1-2.5-0.6c-0.4-0.2-1.5-0.8-1.7-1.8c-0.1-0.6,0.2-1,0.7-1.8c0.5-0.8,0.8-0.9,1.6-2c0.8-1.1,1.3-1.6,1.2-2.3
					c0-0.9-0.7-1.5-0.9-1.7c-0.6-0.5-1.4-0.8-3.5-0.9c-0.3,0-0.6,0-0.9-0.1c-1.7,3.6-2.7,7.6-2.7,11.8v1.8
					C-2-11.6-1.2-11.6-0.9-11.6z"/>
			</g>
		</g>
		<g>
			<g>
				<path class="st2" d="M6.6-28.2c1.1,0.5,2.2,0.6,2.2,0.6c0.4,0,0.8,0,1.4,0.2c0.7,0.2,1,0.4,1.1,0.5c0.3,0.3,0.5,0.5,0.6,0.8
					c0.2,0.4,0.4,0.8,0.3,1.3c-0.1,0.6-0.5,1-0.6,1.1c-0.3,0.3-0.6,0.5-0.8,0.5c-1.3,0.6-2.1,2.1-2.1,2.3c-0.1,0.3-0.8,1.8-0.2,2.8
					c0.3,0.4,0.7,0.6,0.8,0.7c2.6,1.3,4.3,3.9,4.9,3.5c0.9-0.5-0.7-6-0.2-7c0.4-0.8,0.9-1.4,0.9-1.4c0.7-0.8,1.2-0.9,2.4-2
					c1.4-1.2,1.5-1.6,1.6-1.8c0.2-0.9-0.2-1.6-0.3-1.8c-0.4-0.7-1.1-1-1.6-1.3c-0.8-0.4-1-0.2-2-0.5c-1.1-0.3-1.8-0.6-2.2-1.3
					c-0.6-1-0.1-2.2,0-2.4c0.3-0.7,0.9-1.2,1.6-1.6c1.1-0.8,1.6-0.7,2-1.3c0.4-0.5,0.5-1.1,0.5-1.9c0-0.3,0-0.8-0.1-1.7
					c-4.7,1.4-8.8,4-12.1,7.4C4.6-30.7,5.4-28.8,6.6-28.2z"/>
			</g>
		</g>
		<g>
			<g>
				<path class="st2" d="M26.5-39.6c-0.2,1.3-1,2.2-1.3,2.5c-1.1,1.1-1.9,0.7-3,1.8C21.9-35,20.9-34,21-32.9
					c0.2,1.1,1.3,1.8,2.5,2.5c1.7,1,2.4,0.8,2.8,1.6c0.5,1-0.1,2.2-0.3,2.6c-0.3,0.7-0.8,1.1-2.3,2.3c-2.6,2-2.5,1.7-2.8,2.1
					c-0.6,0.9-0.4,1.6,0.3,6.6c0.4,2.4,0.6,3.7,0.3,4.3C21-9.3,20.1-9.3,18.9-7c-0.2,0.5-0.5,0.9-0.8,1.3c-0.3,0.4-0.3,0.8-0.2,1.3
					c0.2,0.7,0.5,1.8,0.5,2.4c-0.1,0.8-0.9,0.9-2.1,2.1c-0.7,0.7-1.3,1.3-1.7,2.4c-0.2,0.6-0.6,1.6-0.2,2.4c0.3,0.5,1.1,0.8,2.7,1.3
					c1.5,0.4,1.8,0.4,2.6,0.8c0.6,0.3,1.3,0.7,1.6,1.5c0.3,0.8,0,1.5-0.1,1.8c-0.2,0.5-0.5,0.8-1,1.4c-0.7,0.8-0.9,0.8-1.6,1.5
					c-0.7,0.7-1,1.1-1.1,1.7c-0.1,0.5,0.2,1,0.5,1.6c0.1,0.2,0.4,0.7,1,1.4c0.6,0.7,0.8,0.6,1.5,1.3c0.4,0.4,1,1,1.3,1.8
					c0.4,1,0.2,1.8,0.3,1.8c0.1,0,0.6-1.1,0.5-2.3c-0.1-0.7-0.5-1.5-1.5-3.1c-0.6-1-0.8-1.2-0.9-1.7c-0.1-0.3-0.3-1.4,0.4-2.3
					c0.3-0.4,0.6-0.7,1.4-1.2c0.8-0.5,1-0.6,1.5-1.1c0.1-0.1,0.4-0.5,0.7-1.2c0.1-0.2,0.4-1.2,0-2.2c-0.3-1-1.1-1.5-1.5-1.8
					c-0.8-0.6-1.7-0.8-2.1-0.9c-1-0.2-1.2,0-1.7-0.4c-0.8-0.5-0.8-1.6-0.8-1.7c0-0.7,0.3-1.2,0.6-1.6c0.6-1,1.5-1.6,2.1-2
					c1-0.6,1.2-0.5,1.7-0.9c0.8-0.8,0.9-2,1-2.6c0.3-6.2-0.6-14.3,2.4-16.8c1.6-1.4,3.2-1.9,3.2-1.9c0.8-0.3,1.2-0.3,2.1-0.7
					c0.8-0.4,1.6-0.8,2.1-1.7c0.1-0.1,0.8-1.4,0.2-2.7c-0.2-0.5-0.6-0.7-1.2-1.3c-0.8-0.7-1.1-0.6-1.9-1.3c-0.6-0.5-1-0.8-1.2-1.4
					c-0.4-1,0.1-1.9,0.2-2.1c0.5-0.9,1.3-1.3,1.8-1.5c0.4-0.2,0.5-0.1,1.6-0.5c0.8-0.3,1.2-0.4,1.4-0.6c0.2-0.2,0.7-0.7,0.7-2.7
					c0,0,0-0.1,0-0.1c-2.5-1-5.3-1.6-8.1-1.8C26.5-40.6,26.5-40.1,26.5-39.6z"/>
			</g>
		</g>
		<g>
			<g>
				<path class="st2" d="M40.5-33.9c-1.5,0.5-1.6,0.5-2.2,0.8c-0.6,0.3-1.1,0.6-1.4,1.2c-0.4,0.9,0.2,1.9,0.4,2.2
					c0.6,1,1.1,0.9,2.4,2.3c0.9,1,1,1.5,1,1.8c0,0.2,0.1,1.1-0.4,1.7c-0.5,0.7-1.3,0.5-2.8,0.8c-0.9,0.2-2.4,0.6-3.3,1.6
					c-0.7,0.8-0.7,1.7-0.8,2.9c-0.3,4.5-1.1,6.3-1,10.1c0,1,0.1,1.9,0.6,2.8c0.2,0.3,0.7,0.9,1.1,1.4c0.7,0.8,0.9,1,1,1.4
					c0.1,0.7-0.3,1.3-0.5,1.6c-0.5,0.7-1.2,1-1.5,1.1c-0.9,0.4-1,0.2-2.1,0.5c-1.1,0.2-1.9,0.6-2.3,0.9c-0.7,0.5-1,0.8-1.1,1.1
					c-0.4,1,0.7,2.3,1.2,2.9c0.7,0.8,1.1,0.8,2,2c0.7,0.9,0.9,1.2,0.9,1.6c0,0.1,0.1,1.1-0.6,1.8c-0.3,0.3-0.6,0.3-2,0.7
					c-1.8,0.5-2.3,0.7-2.5,0.8c-0.8,0.4-1.3,0.6-1.6,1.1c-0.6,0.9-0.4,1.9-0.4,2.3c0.2,1,0.7,1.8,1.2,2.6c0.4,0.6,0.7,1.1,0.8,1.1
					c0.3-0.1-1.1-2.8,0-5c0.1-0.2,0.6-1.1,1.5-1.4c0.5-0.2,0.8-0.1,1.7-0.1c0.9,0,2.3,0,3.4-0.8c0.3-0.2,0.9-0.6,1.2-1.5
					C35,9.1,33.8,7,32.7,6.3c-0.1-0.1-0.5-0.3-1-0.8c-0.3-0.3-0.6-0.6-0.6-1.1c-0.2-0.9,0.5-1.6,0.6-1.6c0.2-0.2,0.5-0.4,1.3-0.6
					c1-0.3,1.7-0.4,2.2-0.4c1.5-0.2,2.3-0.3,2.8-0.8c1-0.8,1.1-2.6,0.6-3.7c-0.2-0.6-0.6-1-1.4-1.8c-0.8-0.9-1.1-0.9-1.3-1.4
					c-0.5-0.9-0.5-2.2,0.2-3c0.6-0.7,1.5-0.8,2.7-0.9C39.9-10,40.1-9.7,41-10c0.6-0.1,1.7-0.4,2.1-1.3c0.6-1.2-0.5-2.7-0.7-3
					c-0.8-1.1-1.7-0.7-2.3-1.7c-0.7-1-0.7-2.7,0.1-3.5c0.4-0.4,0.9-0.4,1.9-0.6c1.1-0.2,1.3,0,2.2-0.1c0.8-0.1,2-0.3,2.6-1.1
					c0.8-1,0.6-2.8-0.1-3.9c-0.5-0.8-1.1-0.8-2-2.1c-0.3-0.5-0.6-0.9-0.7-1.4c-0.1-0.6,0-1.1,0.5-2.5c0.1-0.4,0.3-0.7,0.4-1
					C44-33,43-33.9,42.1-34.7c0,0-0.1,0.1-0.1,0.1C41.7-34.4,41.3-34.2,40.5-33.9z"/>
			</g>
		</g>
		<g>
			<g>
				<path class="st2" d="M-1.4,11.3c0.3,0.6,0.2,1.1,0,2.2c-0.2,0.9-0.4,2.1,0.2,3.2c0.5,0.9,1.4,1.3,1.7,1.4
					c0.9,0.3,1.9,0.2,2.6-0.2c0.2-0.1,0.1-0.1,1-0.8c0.7-0.5,1.1-0.8,1.4-1c0.6-0.3,1.1-0.5,1.7-0.4C8.2,16,8.7,16.8,8.8,17
					c0.3,0.5,0.4,0.9,0.5,1.4c0.1,0.6,0,0.9,0,1.8c0,1.1,0,1.7,0.2,2.4c0.2,0.5,0.4,1.1,1,1.5c0.6,0.3,1.2,0.3,1.6,0.2
					c0.7-0.1,0.8-0.3,1.7-0.4c0.7-0.1,1.1-0.2,1.5-0.2c1.5,0,2.3,0.9,2.6,0.6c0.2-0.2,0.2-0.8-0.1-1.1c-0.5-0.6-1.5,0-3.7-0.1
					C13,23,12.5,23,12,22.6c-0.6-0.5-0.8-1.2-1-2.2c-0.2-1-0.3-1.9-0.3-2.5c0-1.7,0-2.3,0-2.3c0-0.7,0-0.9-0.3-1.2
					c-0.1-0.2-0.3-0.5-1.2-0.6c-1.1-0.1-2,0-2.1,0c-1.1,0.2-1.2,0.4-2.7,0.7c-2,0.5-2.4,0.4-2.7,0.2c-0.4-0.3-0.5-0.8-0.6-1.1
					c-0.2-0.6,0-1.1,0.1-1.8c0.1-0.6,0.1-1.1,0.1-2.2c0-1.6,0-2.3-0.4-2.8C0.7,6.5,0.1,6.4-1,6.3c-0.6-0.1-0.9-0.1-1.8,0V10
					c0.2,0.1,0.3,0.2,0.5,0.3C-1.7,10.7-1.6,10.9-1.4,11.3z"/>
			</g>
		</g>
		<g>
			<g>
				<path class="st2" d="M-0.2,24.1c0.5-0.2,0.8-0.5,1.4-1.1c0.7-0.7,0.7-0.9,1.4-1.5c0.6-0.5,0.9-0.7,1.1-0.8
					c0.3-0.2,0.7-0.4,1.3-0.3c0.2,0,0.8,0,1.3,0.4c0.2,0.2,0.3,0.5,0.6,1c0.1,0.3,0.3,0.7,0.5,1.2c0.2,0.6,0.2,0.8,0.3,1.2
					c0.2,0.7,0.4,1.9,1.2,2.3c0.2,0.1,0.7,0,1.7-0.2c0.7-0.1,1.3-0.3,2-0.4c0.9-0.2,1.1-0.3,1.7-0.4c0.6-0.1,1-0.2,1.4-0.1
					c0.3,0,0.9,0.2,1.6,0.4c0.3,0.1,0.6,0.2,0.8,0.1c0.1-0.1,0.2-0.3,0.2-0.5c-0.1-0.6-1.3-1-1.7-1.1c-0.5-0.2-1.6-0.4-2.7,0
					c-1,0.4-0.9,0.8-1.9,1.1c-0.2,0.1-1.3,0.3-2.3-0.3c-0.7-0.4-1-0.9-1.1-1.2c-0.1-0.1-0.2-0.4-0.3-1.9c-0.1-1.3,0-1.3-0.1-1.8
					c-0.1-0.5-0.3-1.3-1-1.9c-0.8-0.6-2-0.9-2.8-0.4c-0.5,0.3-0.4,0.5-1.1,1.2c-0.3,0.3-1,0.9-1.9,1.3c-0.7,0.3-2.1,1-3,0.4
					c-0.4-0.2-0.6-0.6-0.7-0.8c-0.3-0.5-0.2-0.9-0.2-2c0-1.1-0.1-1.7-0.3-2c0,0,0,0,0,0v7.5c0.2,0.2,0.5,0.4,0.8,0.5
					C-1.8,24.2-1,24.4-0.2,24.1z"/>
			</g>
		</g>
		<g>
			<g>
				<path class="st2" d="M-0.4,31c0.4-0.2,0.6-0.5,0.6-0.6c0.2-0.2,0.2-0.4,0.3-0.8c0.1-0.2,0.2-0.5,0.5-1.1
					c0.4-0.8,0.6-1.2,0.7-1.3c0.3-0.4,0.6-0.9,1.2-1.3c0.3-0.2,0.8-0.5,1.4-0.5c0.5,0,0.8,0.2,1,0.4c0.1,0.1,0.5,0.3,1,0.9
					c0.4,0.5,0.5,0.9,0.7,1.2c0.6,1.3,0.8,2,1.2,2.4c1.1,1.1,3.4,1.2,4.1,0.3c0.2-0.2,0.2-0.5,0.8-1.1c0.3-0.4,0.5-0.6,0.7-0.8
					c0.6-0.4,1.3-0.3,1.5-0.3c0.7,0.1,1.1,0.3,1.5,0.6c1,0.5,1.9,0.7,3,0.8c1.4,0.2,2.9,0.4,3.5-0.4c0.3-0.4,0.4-1.2,0-1.7
					c-0.5-0.7-1.4-0.4-4.3-0.5c-2.2-0.1-2.5-0.3-3.8-0.1c-0.7,0.1-1.5,0.3-2.4,0.7c-0.6,0.3-0.9,0.6-1.5,0.8
					c-0.4,0.1-1.1,0.3-1.9,0.1c-0.5-0.1-0.8-0.4-1-0.5c-0.2-0.1-0.5-0.4-0.7-0.7c-0.2-0.4-0.3-0.7-0.3-1c-0.1-0.5-0.2-1.3-0.6-1.9
					c-0.1-0.3-0.5-1.1-1.5-1.5c-0.7-0.3-1.4-0.2-1.7-0.1c-1.2,0.2-2.3,1.2-2.8,2.2C0.5,26,0.5,26.4,0,26.8c-0.6,0.5-1.3,0.5-1.5,0.5
					c-0.4,0-0.5-0.1-1.3-0.2v3.7c0.3,0.1,0.7,0.1,1.1,0.2C-0.9,31.1-0.6,31.1-0.4,31z"/>
			</g>
		</g>
		<g>
			<g>
				<path class="st2" d="M-0.8,37.9c0.5-0.1,1.3-0.2,1.8-0.9c0.3-0.3,0.1-0.5,0.5-2c0.1-0.4,0.2-1,0.5-1.6c0.3-0.9,0.4-1.1,0.5-1.3
					c0.2-0.3,0.4-0.8,0.9-1c0.7-0.4,1.6-0.5,2.3-0.1c0.5,0.3,0.9,0.7,1.1,1.1C7,32.4,7,32.6,7.3,32.9c0.1,0.1,0.4,0.4,0.9,0.6
					c0.9,0.4,1.9,0.3,2.2,0.2c0.3-0.1,1-0.2,1.7-0.9c0.5-0.5,0.6-0.9,1.2-1.2c0.1-0.1,0.3-0.1,1-0.3c1.3-0.3,2.3-0.5,2.3-0.5
					c1.4-0.2,1.6-0.2,1.7-0.3c0.1-0.3,1.3-1.4-0.1-1.5c-0.4,0-0.4-0.2-1,0.4c-0.1,0.1-3.1,0.4-4.1,1.3c-0.7,0.7-0.8,1.2-1.2,1.5
					c-0.1,0-0.2,0.1-0.3,0.2c-1,0.5-2,0.2-2.1,0.1c-0.5-0.2-0.9-0.5-1.2-0.8c-0.3-0.3-0.5-0.6-0.9-1c-0.3-0.4-0.5-0.6-0.7-1
					c-0.8-1.1-1.2-1.6-1.6-1.9c-0.6-0.3-1.3-0.3-2,0c-0.6,0.3-0.9,0.8-1.3,1.6c-0.5,0.9-0.4,1.1-1,2.4c-0.6,1.3-0.9,1.5-1,1.6
					c-0.5,0.3-1.1,0.4-1.6,0.4c-0.3,0-0.6,0-1,0v3.9C-2.3,37.9-1.6,38-0.8,37.9z"/>
			</g>
		</g>
		<g>
			<g>
				<path class="st2" d="M0.3,43.1c0.5,0.1,1.3,0.1,2.1,0.1c0.9,0,1.1-0.3,1.2-0.3C4,42.6,4.1,42,4.1,41.6c0.1-0.5,0-0.7,0-1.8
					c0,0,0-0.8,0-2c0-1.3,0.1-1.5,0.2-1.6c0.4-0.6,1.2-0.7,1.4-0.7c0.5-0.1,0.9,0.1,1.2,0.2c0.6,0.2,0.9,0.5,1.4,0.8
					c0.7,0.5,1.4,0.7,1.8,0.8c1,0.4,2.2,0.8,3.1,0.2c0.5-0.3,0.7-1,0.9-1.5c0.3-0.8,0.1-1.1,0.5-1.6c0.4-0.5,0.9-0.7,1.4-0.8
					c0.5-0.1,0.8-0.2,1.6-0.2c1.4-0.1,2.1-0.2,2.5-0.2c0.9-0.2,1.7-0.4,2-1c0.3-0.8-0.1-1.7-0.5-1.8c-0.4,0-0.4,1.2-1.4,1.6
					c-0.4,0.2-0.6,0-1.6-0.1c-0.5,0-1.5-0.1-2.6,0.2c-0.5,0.1-2,0.5-2.2,1.4c-0.1,0.4,0.1,0.5,0,1c-0.2,0.7-0.9,1.1-1.1,1.2
					c-0.9,0.5-1.8,0.2-2.6,0.1c-0.4-0.1-0.8-0.2-1.3-0.5c-0.3-0.2-0.3-0.3-0.9-0.8c-0.5-0.4-0.7-0.7-1.1-0.8
					c-0.3-0.1-0.7-0.4-1.4-0.5c-0.2,0-1.1-0.1-1.8,0.4c-0.6,0.5-0.8,1.5-1.1,3.6c-0.2,1.3-0.1,1.5-0.4,2c-0.4,0.7-1.2,1.3-2.2,1.3
					c-0.6,0-1.1-0.1-1.5-0.4c-0.6-0.5-0.6-0.7-1.1-1c0,0-0.1,0-0.1,0v3.2c0.4,0.2,0.7,0.4,0.9,0.4C-1.8,42.6-1.1,42.8,0.3,43.1z"/>
			</g>
		</g>
		<g>
			<g>
				<path class="st2" d="M-0.6,53.8C-0.7,53-1,52.9-1.3,51.9c-0.4-1.1-0.2-2.7,0.4-3.5c0.4-0.5,0.9-0.5,1.2-0.5
					c0.9-0.1,1.3,0.2,2.4,0.6C4.2,49,5,49.3,5.9,49c0.8-0.2,1.8-0.9,2.1-2.1c0-0.2,0-0.3-0.3-1.8c-0.2-1.1-0.3-1.6-0.4-2.4
					c-0.2-1.6,0-1.9,0.1-2.1c0.3-0.3,0.7-0.4,1.1-0.4c0.9-0.1,1.6,0.1,1.8,0.2c1.1,0.3,3.2,0.9,4.8,0.2c0.9-0.4,1.4-1.2,1.6-1.5
					c0.8-1.2,0.3-2,0.8-3c1-2,4.1-2.2,4-2.4c-0.1-0.2-1.7-0.4-3.2,0.4c-0.2,0.1-1.8,1-2.4,2.8c-0.2,0.7-0.1,1.1-0.5,1.6
					c-0.7,0.8-1.7,0.9-1.8,1c-0.4,0-0.7-0.1-2.5-0.9c-1.6-0.8-1.8-0.9-2.4-1.1c-0.7-0.2-1.5-0.4-2.3,0.1c-0.7,0.4-1,1.2-1.1,1.4
					c-0.1,0.2-0.1,0.5-0.1,1.9c0,1.2,0,1.8,0.1,2.3c0.1,1,0.2,1.3,0,1.8c-0.1,0.1-0.3,0.7-0.8,1.1c-1,0.6-2.3,0-3.2-0.4
					c-1.1-0.5-1.1-0.8-2.2-1.3c-0.2-0.1-1-0.4-2.1-0.6v12.8c0.3,0,0.6-0.1,0.9-0.3C-1,55.9-0.5,54.7-0.6,53.8z"/>
			</g>
		</g>
		<g>
			<g>
				<path class="st2" d="M5.5,55.9c-0.2-0.6-0.3-1.7,0.4-2.2c0.6-0.4,1.5-0.2,2-0.1c0.2,0.1,0.5,0.1,0.6,0.1
					c1.3,0.1,2.6,0.2,3.9-0.5c0.5-0.3,1.1-0.5,1.5-1.5c0.5-1.3-0.2-2.6-0.4-3c-0.5-0.9-0.9-0.9-1.4-2c-0.3-0.6-0.5-1.1-0.4-1.8
					c0.2-0.8,0.8-1.2,0.9-1.3c0.9-0.6,2-0.4,2.3-0.4c0.3,0,0.4,0.1,0.8,0.1c0.5,0.1,0.9,0,1.3,0c1.2-0.2,1.9-0.3,2.2-0.5
					c1-0.8,0.8-2.4,0.8-2.8c-0.1-1-0.3-1.1-0.3-1.8c0-0.7,0.1-1.2,0.9-2.5c0.5-0.9,1.5-1.7,1.3-1.8c-0.1-0.1-0.4,0.2-0.8,0.5
					c-1.2,1.1-2.2,1-2.7,1.7c-0.6,0.8-0.6,1.9-0.6,2.4c0,0.7,0.3,1,0.1,1.8c0,0.2-0.2,0.6-0.6,1c-0.4,0.3-0.9,0.4-2,0.3
					c-1.2,0-2.1-0.1-3-0.1c-1.6-0.1-1.9,0.1-2.1,0.2c-0.9,0.5-1.1,1.6-1.1,1.9C9,44.4,9.2,45.4,9.7,46c0.1,0.1,0.2,0.3,0.4,0.6
					c0.2,0.4,0.3,0.8,0.4,1c0.1,0.5,0.2,0.9,0.2,1.5c0,0.4-0.1,0.7-0.3,1c-0.4,0.5-1,0.6-1.7,0.7c-0.3,0-0.6,0.1-2.1,0
					c-1.3-0.1-1.6-0.1-2.1-0.1c-0.6,0.1-1,0.1-1.5,0.4c-0.2,0.1-0.7,0.5-0.9,1.1c0,0.1-0.1,0.4,0.1,1.7c0.1,0.8,0.2,1.2,0.4,1.7
					c0.4,1.3,0.7,1.2,0.8,2c0.1,0.4,0.1,0.8,0.1,1.1H7c-0.2-0.7-0.6-1.4-0.8-1.7C5.8,56.5,5.7,56.4,5.5,55.9z"/>
			</g>
		</g>
		<g>
			<g>
				<path class="st2" d="M16.3,57.4c1.5-0.6,1.8-0.4,2.9-0.9c0.8-0.3,2.2-0.9,2.5-2c0.3-1.2-0.7-2.4-1.1-2.8c-0.5-0.5-0.6-0.5-2-1.7
					c-1.2-1.1-1.4-1.4-1.4-1.7c-0.1-0.9,0.8-1.7,0.9-1.8c0.4-0.3,0.6-0.3,2-0.8c0.9-0.3,1.3-0.4,1.6-0.6c1-0.5,1.8-0.8,2.2-1.6
					c0.6-1.1,0.2-2.4,0-2.9c-0.4-1.1-0.8-1.2-1.2-2.1c-0.7-1.7,0.4-3.3,0-3.5c-0.2-0.1-0.5,0.3-0.8,0.6c-0.6,1-0.2,2.5,0.1,3.3
					c0.1,0.4,0.3,0.8,0.5,1.6c0.2,0.7,0.2,1,0.1,1.3c0,0.1-0.1,0.3-0.7,0.9c-0.5,0.5-0.8,0.8-1.1,1c-0.5,0.3-0.7,0.2-2.2,0.4
					c-1.1,0.2-1.7,0.3-2,0.5c-0.6,0.2-0.9,0.4-1.2,0.7c-0.4,0.4-0.4,0.9-0.4,1.5c0,0.5-0.1,1.2,0.3,1.8c0.2,0.4,0.3,0.3,1,1
					c0.5,0.6,0.4,0.6,0.9,1.1c0.7,0.8,1,0.8,1.2,1.3c0,0.1,0.2,0.7,0,1.2c-0.2,0.4-0.4,0.6-1.3,1.1c-1.2,0.7-1.8,1.1-2.1,1.1
					c-0.9,0.2-0.9,0.2-2,0.2c-0.4,0-1.4,0-2,0.7c-0.7,0.6-1,1.6-1,2.5h4.8c0-0.1,0-0.2,0.1-0.3C14.7,58.2,15,57.9,16.3,57.4z"/>
			</g>
		</g>
		<g>
			<g>
				<path class="st2" d="M26.3,57.5c0.9-0.8,1-0.8,1.7-1.4c0.6-0.6,0.9-0.8,1.1-1.2c0.3-0.9-0.1-1.8-0.2-1.9
					c-0.3-0.5-0.6-0.7-1.2-1.1c-0.6-0.4-0.9-0.4-2-1c-1.4-0.7-1.8-1-1.9-1.2c-0.2-0.2-0.5-0.6-0.6-1.2c-0.1-0.9,0.4-1.6,0.6-1.8
					c0.3-0.4,0.6-0.5,1.1-0.9c0.8-0.5,1.1-0.5,1.5-0.8c0.7-0.5,1.2-1.4,1.2-2.3c0-0.3-0.1-0.7-0.4-1.3c-0.5-1.3-0.8-1.4-1-2.2
					c-0.2-0.5-0.2-1.2-0.2-2.6c-0.1-1.6,0-2-0.3-2.3c-0.4-0.4-1.3-0.3-1.8,0.1c-0.7,0.5-1.4-0.1-1.4,1.2c0,0.8-0.4,0.8,0,1.2
					c0.2,0.3,1.4,2.3,2.2,3c0.6,0.5,1,0.7,1.2,1c0.1,0.1,0.5,0.7,0.4,1.5c-0.1,0.6-0.5,1-0.8,1.3c-0.4,0.3-0.6,0.5-1.9,1
					c-1.4,0.6-1.9,0.8-2.4,1.2c-0.5,0.4-0.8,0.6-1,1c-0.3,0.6-0.4,1.4,0,2.1c0.2,0.4,0.4,0.3,1.6,1.2c0.7,0.5,0.6,0.5,1.2,0.9
					c1.1,0.8,1.4,0.8,2,1.4c0.4,0.4,0.6,0.7,0.7,1.2c0.1,0.8-0.4,1.4-0.4,1.4c-0.2,0.3-0.4,0.3-0.8,0.5c-0.6,0.3-1.2,0.6-1.8,0.9
					c-1.1,0.6-1.7,0.9-2.1,1.5c-0.1,0.1-0.3,0.4-0.4,0.7h4.8c0.2-0.2,0.4-0.3,0.6-0.4C25.6,58.1,25.6,58.1,26.3,57.5z"/>
			</g>
		</g>
		<g>
			<g>
				<path class="st2" d="M32.2,57.9c0.1-0.7,0.4-1.1,0.6-1.3c0.3-0.5,0.5-0.5,1.3-1.3c0.5-0.5,0.8-0.8,1-1.2
					c0.2-0.4,0.5-0.8,0.5-1.5c0-1-0.7-1.7-0.8-1.8c-0.7-0.7-1.8-0.8-2.8-0.9c-0.9-0.1-1.1,0.1-1.8-0.1c-0.5-0.1-1.1-0.3-1.5-0.8
					c-0.1-0.2-0.6-0.8-0.5-1.6c0-0.3,0.3-0.7,0.8-1.5c0.3-0.4,0.6-0.9,1-1.4c0.3-0.4,0.3-0.4,0.8-1c0.5-0.6,0.8-0.9,0.8-1.1
					c0.3-0.7,0.1-1.7-0.4-2.4c-0.5-0.6-1.2-0.7-1.8-0.9c-1-0.3-1.3,0-1.7-0.3c-0.3-0.2-0.7-0.7-0.5-3.5c0.2-2.2,0.6-3.6,0.4-3.7
					c-0.2-0.1-0.9,1.2-1.2,2.7c0,0-0.5,2.6,1.1,5.1c0.2,0.3,0.5,0.8,0.9,1c0.1,0,0.2,0.1,0.4,0.2c0.1,0,0.3,0.2,0.5,0.5
					c0.3,0.5,0.2,1.1,0.1,1.3c-0.1,0.4-0.3,0.7-0.6,1c-0.7,0.9-1.2,1-2.1,1.8c-0.8,0.7-1.2,1-1.4,1.6c-0.3,0.8-0.2,1.9,0.3,2.6
					c0.4,0.5,0.8,0.7,1.6,1.1c0.7,0.4,0.8,0.3,2,0.8c0.9,0.4,0.4,0.2,1.9,1c0.4,0.2,0.7,0.3,0.8,0.6c0.2,0.4,0,0.9-0.1,1.2
					c-0.2,0.4-0.4,0.7-0.8,1c-1,0.9-1.1,0.8-1.6,1.4c-0.6,0.6-0.4,0.6-1.3,1.6c-0.4,0.5-0.5,0.5-0.6,0.8c0,0,0,0.1,0,0.1h4.5
					C32.3,58.5,32.2,58.4,32.2,57.9z"/>
			</g>
		</g>
		<g>
			<g>
				<path class="st2" d="M47.5,57.7c-0.4-0.3-0.6-0.2-2-0.2c-0.6,0-1.9,0-3.2-0.2c-1.3-0.2-2-0.3-2.4-0.7c-0.6-0.7-0.7-1.8-0.4-2.5
					c0.2-0.6,0.5-0.5,1.1-1.5c0.4-0.7,0.6-1.2,0.8-1.7c0.3-0.9,0.5-1.3,0.5-1.6c-0.1-0.9-0.9-1.7-1.8-2c-0.2-0.1-0.4-0.1-2-0.1
					c-1.6,0.1-1.9,0.1-2.7,0.1c-1-0.1-1.5-0.1-1.9-0.5c-0.6-0.6-0.5-1.8-0.3-2.4c0-0.1,0.2-0.3,0.4-0.7c0.5-0.9,0.7-1.1,0.8-1.4
					c0.4-0.9,0.1-1.9-0.1-2.4c-0.5-1.4-1.5-2.1-2.4-2.8c-1.6-1.1-2.1-0.8-2.8-1.7c-0.6-0.8-0.6-1.5-1.4-2c-0.2-0.1-0.7-0.4-1.1-0.2
					c-0.8,0.5-0.5,3.7,1.1,4.8c0.7,0.5,1.4,0.6,1.4,0.6c0.5,0.1,0.7-0.1,1.5,0c0.6,0,1,0.1,1.5,0.4c0.1,0.1,0.5,0.3,0.8,0.8
					c0.2,0.4,0.2,0.7,0.2,0.9c0,0.1,0,0.6-0.3,1.1c-0.2,0.5-0.5,0.7-0.9,1.1c-0.5,0.6-1.2,1.3-1.5,2.2c-0.1,0.3-0.4,1.1-0.1,2
					c0.4,1.1,1.5,1.5,1.7,1.6c0.2,0.1,0.4,0.1,2.4,0.2c1.2,0.1,1.4,0.1,1.9,0.1c0.9,0.2,1.5,0.3,1.9,0.8c0.4,0.6,0.3,1.3,0.3,1.5
					c-0.1,0.5-0.3,0.9-0.4,1.1c-0.4,0.5-0.7,0.5-1.1,1c-0.4,0.4-0.5,0.9-0.8,1.8c-0.3,1-0.4,1.5-0.4,2.1c0.1,0.7,0.3,1.2,0.5,1.6
					h11.6C48.1,58.4,47.8,58,47.5,57.7z"/>
			</g>
		</g>
		<g>
			<g>
				<path class="st2" d="M50.8,51.1c-0.3,0.2-0.3,0.3-0.5,0.5c-0.4,0.4-1,0.3-2.1,0.3c-0.9-0.1-1.4-0.1-1.7-0.3
					c-0.4-0.4-0.5-1-0.6-1.5c-0.1-0.5,0-0.9,0.2-2.2c0.3-1.6,0.4-1.8,0.4-2.3c0-0.9,0.1-1.6-0.4-2.1c-0.3-0.3-0.8-0.4-1.3-0.5
					c-0.6-0.1-1,0-1.7,0c-0.9,0.1-1.7,0.3-2.1,0.4c-0.9,0.3-1.1,0.5-1.7,0.5c-0.4,0-0.8,0.1-1.3-0.2c-0.5-0.3-0.9-0.8-1-1.3
					c-0.1-0.3,0-0.3,0.1-1.3c0.1-0.7,0-0.7,0.1-1.4c0.1-1,0.1-1,0.2-1.7c0.1-1.1,0.1-1.6-0.1-2c-0.4-0.7-1.2-1-1.5-1.1
					c-0.7-0.2-0.9,0-2.1-0.1c-1.6-0.1-2.5-0.6-2.8-0.2c-0.2,0.2,0,0.7,0.1,0.9c0.3,0.8,1.2,1.2,1.9,1.2c0.5,0,0.5-0.1,1.3-0.1
					c0.7,0,1.1,0,1.4,0.2c0.5,0.4,0.6,1,0.6,1.2c0.1,0.5-0.1,0.8-0.4,1.8c-0.4,1.1-0.6,1.6-0.7,2.1c-0.3,1.3-0.2,2.2-0.1,2.4
					c0.1,0.7,0.2,1.3,0.7,1.6c0.1,0.1,0.4,0.3,2.1,0.2c1,0,1.7-0.1,2.6-0.3c1.2-0.3,1.4-0.6,2.1-0.4c0,0,1,0.2,1.4,1.1
					c0.3,0.7,0.1,1.4,0,1.9c-0.2,0.5-0.3,0.7-0.5,1.1c-0.1,0.1-0.7,1.5-0.4,3.2c0.1,0.7,0.3,1.7,1,2.2c1.5,1.1,4.8,0,5.3-0.2
					c0.4-0.1,0.9-0.3,1.4-0.1c0.6,0.2,0.7,0.7,1.2,1v-4.6c0,0,0,0,0,0C51.3,50.8,51,51,50.8,51.1z"/>
				<path class="st2" d="M32,18c0.6-0.4,1.1-0.4,2-0.5c1.6-0.2,2.7,0.2,3,0.3c0.8,0.2,0.7,0.3,1.4,0.6c0.8,0.2,2.2,0.7,3.3-0.1
					c0.8-0.5,1-1.4,1-1.7c0.2-0.6,0-0.9-0.2-2.6c-0.2-1.8-0.1-2.2-0.1-2.5c0.1-0.4,0.4-1.6,1.3-1.9c0.5-0.2,1,0,1.9,0.3
					c0.7,0.2,0.9,0.4,1.4,0.7c0.3,0.2,1.6,0.7,3,0.6c0.3,0,1.1-0.1,1.9-0.5v-12c-0.3,0-0.6,0-0.9,0c-1.2,0-1.8,0-2.4,0.4
					c-0.5,0.4-1.1,1.1-1,1.9c0,0.8,0.6,0.9,1.1,2.1C49,3.9,49,4.7,49,5.4c0,1.2,0,1.5-0.1,1.7c-0.1,0.1-0.4,0.5-1.6,0.6
					c-1.2,0.1-1.7-0.2-3.1-0.5c-1.6-0.3-2.8-0.6-3.8,0.1c-0.7,0.5-0.9,1.2-0.9,1.3c-0.1,0.3-0.1,0.8,0.5,3c0.3,1.1,0.4,1.2,0.5,1.7
					c0.1,0.6,0.2,1.5-0.3,2.2c-0.1,0.2-0.4,0.6-0.9,0.9c-0.6,0.3-1.1,0.2-3.1-0.2c-1.1-0.2-1.6-0.3-1.9-0.3
					c-1.5,0.1-2.5,1.2-2.6,1.3c-0.5,0.5-0.7,1.1-0.9,1.5c-0.1,0.2-0.2,0.5-0.1,0.6C30.8,19.4,31.2,18.5,32,18z"/>
			</g>
		</g>
		<g>
			<g>
				<path class="st2" d="M51.1,44.9c-0.1-0.1-0.1-0.3-0.3-0.7c0-0.2-0.1-0.5-0.2-0.8c-0.1-0.8,0-1.3-0.1-2.1c0-0.2-0.2-0.8-0.5-2.1
					c-0.3-1.1-0.3-1.3-0.5-1.5c-0.6-0.6-1.6-0.6-1.7-0.6c-0.5,0-0.9,0.3-1.4,0.6c-0.6,0.4-0.5,0.5-1.1,0.9c-0.2,0.1-0.9,0.6-1.9,0.9
					c-0.3,0.1-0.8,0.2-1.4,0.2c-0.5,0-1,0-1.4-0.3c-0.4-0.3-0.6-0.7-0.7-0.9c-0.1-0.6,0-0.8,0-1.4c0.1-0.8-0.1-1.3-0.3-2.3
					c-0.3-1-0.4-1.5-0.8-1.9c-0.1-0.1-0.9-0.9-1.9-0.8c-0.5,0.1-0.5,0.3-1,0.5c-0.6,0.2-1,0-2.8-0.3c-1.2-0.2-1.8-0.3-2.6-0.2
					c-0.6,0-1.1,0.1-1.3,0.4c-0.2,0.5,0.6,1.2,1.1,1.6c0.2,0.1,1.4,0.9,2.5,0.5c0.4-0.2,0.4-0.3,0.9-0.5c0.6-0.2,1.1-0.2,1.7-0.2
					c1.2,0,2,0.2,2.3,0.7c0.1,0.2,0.1,0,0.4,1c0.3,1.2,0.3,1.1,0.3,1.5c0.1,0.9,0,1-0.1,2.1c0,0.8,0,1.4,0.3,2
					c0.1,0.1,0.6,1.1,1.7,1.4c0.7,0.2,1.4,0,1.8-0.2c0.6-0.2,0.6-0.3,1.8-1c0.7-0.4,1.1-0.6,1.5-0.7c0.5-0.1,1.3-0.3,2,0.1
					c0.5,0.3,0.7,0.8,0.8,1.1c0.1,0.3,0.2,0.7,0.2,1.6c0,1-0.2,1.2-0.3,2c-0.1,1,0.2,2.7,1.3,3.4c0.4,0.3,0.9,0.3,1.4,0.3
					c0.2,0,0.6,0,1.1,0v-3.9C51.7,45.1,51.3,45.1,51.1,44.9z"/>
			</g>
		</g>
		<g>
			<g>
				<path class="st2" d="M48.6,30.9c-0.6,0.3-1.1,0.9-1.9,1.9c-0.3,0.4-0.5,0.7-0.9,1.1c-0.4,0.4-0.7,0.7-1.3,0.8
					c-0.2,0.1-0.8,0.2-1.3-0.1c-0.4-0.2-0.6-0.7-0.9-1.4c-0.1-0.3-0.2-0.5-0.3-0.7c-0.4-1.1-0.8-1.9-1.1-2.3
					c-0.5-0.9-0.8-1.4-1.2-1.7c-0.2-0.2-1.2-0.8-2.3-0.6c-0.6,0.1-0.9,0.7-1.9,1.5c-0.6,0.5-2.2,0.7-2.4,1.2c-0.1,0.3,0,0.8,0.1,0.8
					c0.1,0.2,0.1,0,1.4-0.4c0.6-0.2,2.7-0.5,3.2-0.5c0.5,0,0.9,0.1,1.2,0.3c0.1,0.1,0.2,0,0.7,1c0.3,0.6,0.3,0.9,0.3,0.9
					c0.2,0.8,0.1,1,0.2,1.7c0.1,0.3,0.2,1.1,0.9,1.8c0.1,0.2,0.6,0.6,1.4,0.9c1.1,0.3,2-0.1,2.5-0.3c0.5-0.2,1-0.6,2.1-1.5
					c0.3-0.3,0.5-0.7,1.1-0.9c0.2-0.1,0.6-0.3,1.1-0.2c0.1,0,0.5,0.1,0.7,0.4c0.4,0.4,0,0.9,0.3,1.4c0.3,0.6,1.1,1,1.8,0.9v-6.3
					c-0.3-0.1-0.6-0.2-1-0.2C50.5,30.5,49.5,30.4,48.6,30.9z"/>
			</g>
		</g>
		<g>
			<g>
				<path class="st2" d="M50.7,24.3c-0.7,0.1-1.3,0.1-1.9,0.5c-0.5,0.4-0.4,0.6-1.1,1.9c-0.5,0.8-0.5,0.7-1,1.6
					c-0.6,1-0.7,1.1-1.1,1.4c-0.4,0.3-0.9,0.4-1.5,0.2c-0.3-0.1-0.6-0.1-1.2-1c-0.7-1-1.2-1.7-1.2-1.7c-1.2-2-1.4-2.1-1.7-2.3
					c-0.2-0.1-1.1-0.6-2-0.4c-0.6,0.1-1,0.5-1.4,0.8c-0.3,0.3-0.3,0.3-0.9,1c-0.9,1-1.1,1.2-1,1.3c0.1,0.1,0.4,0.1,3.3-0.4
					c0.4-0.1,0.9-0.2,1.5,0c0.2,0.1,0.7,0.2,1.1,0.6c0.5,0.5,0.5,0.9,1,2.1c0.5,1.2,0.7,1.8,1.3,2.2c0.9,0.6,1.9,0.4,2.1,0.3
					c1.1-0.2,1.8-1.1,2.2-1.8c0.9-1.2,0.9-1.7,1.7-2.2c0.6-0.4,1-0.5,1.4-0.5c0.7-0.1,1.1,0.1,1.6,0.1v-3.8
					C51.7,24.3,51.2,24.3,50.7,24.3z"/>
			</g>
		</g>
		<g>
			<g>
				<path class="st2" d="M-1.8,4.5C-0.9,4.4-0.1,4.1,0,4.1c0.8-0.4,0.9-0.7,1.6-0.8c0.3-0.1,0.9-0.2,1.4,0.1
					c0.8,0.5,0.9,1.7,0.9,2.1c0,0.6-0.1,0.7-0.3,1.7C3.3,8,3.2,8.9,3.2,9.8c0,1.1,0,2.2,0.8,2.7c0.3,0.2,0.9,0.2,2,0.1
					c0.8,0,1.5-0.1,2.4-0.3c0.9-0.2,1.1-0.4,1.8-0.4c0.6,0,1.2-0.1,1.6,0.3c0.3,0.3,0.4,0.7,0.5,1c0.1,0.4,0,0.8,0,1.4
					c-0.1,0.8-0.2,1.1-0.3,2c-0.1,1.1-0.2,1.6-0.1,2c0,0.2,0.3,1.2,1.2,1.9c0.4,0.3,0.9,0.4,1.9,0.5c0.8,0.1,1.1,0,2,0.2
					c0.8,0.2,1.1,0.3,1.5,0.6c0.4,0.4,0.4,0.8,0.8,0.9c0.4,0.1,1-0.2,1-0.5c0.1-0.6-1.3-1.8-2.8-2.1c-0.9-0.2-1.5,0-2.7-0.5
					c-0.5-0.2-0.8-0.4-1-0.7c-0.4-0.5-0.5-1-0.5-1.5c0-0.2-0.1-0.9,0.2-1.7c0.2-0.5,0.3-0.5,0.6-1.3c0.4-0.8,0.5-1.2,0.6-1.7
					c0-0.6-0.2-1.6-0.8-2.1c-0.6-0.5-1.6-0.4-3.6-0.2c-1.8,0.2-2.5,0.4-3.2-0.1C6.3,9.7,6.1,9.1,6.1,9C5.9,8.4,6,7.9,6.6,6.5
					c0.8-2.3,1-2.3,1-2.8c0-0.1,0.1-2-1.1-2.8C5.9,0.5,5,0.6,3.1,0.8C1.3,1,0.7,1.2-0.1,0.9c-0.3-0.1-1.1-0.4-1.5-1.2
					c-0.4-0.9,0-1.9,0.1-2.1c0.3-0.7,0.6-0.6,1-1.4c0.3-0.5,0.9-1.4,0.7-2.4C0-7.4-1.1-8-1.3-8.1c-0.3-0.1-0.5-0.2-1.5-0.4v13
					C-2.2,4.6-1.8,4.5-1.8,4.5z"/>
			</g>
		</g>
		<path class="st3" d="M22,12.4l2.1,4.6c0.2,0.4,0.7,0.4,0.9,0l2.5-5.2c0.2-0.5,0.9-0.3,0.9,0.2V18c0,0.4,0.5,0.6,0.8,0.4l3.7-3
			c0.4-0.3,1,0.1,0.7,0.6l-2.2,4.2c-0.2,0.4,0.1,0.8,0.5,0.7l5.2-0.9c0.5-0.1,0.8,0.6,0.4,0.9l-3.8,3c-0.3,0.3-0.2,0.8,0.2,0.9
			l4.7,1.1c0.5,0.1,0.5,0.9,0,1L34,27.7c-0.4,0.1-0.5,0.6-0.2,0.9l3.8,3c0.4,0.3,0.1,1-0.4,0.9l-4.9-0.8c-0.4-0.1-0.7,0.3-0.5,0.7
			l1.9,4.2c0.2,0.5-0.4,0.9-0.8,0.6l-3.8-3.1c-0.3-0.3-0.8,0-0.8,0.4v4.9c0,0.5-0.7,0.7-0.9,0.2l-2-4.4c-0.2-0.4-0.7-0.4-0.9,0
			l-2.1,4.7c-0.2,0.5-0.9,0.3-0.9-0.2l-0.2-5c0-0.4-0.5-0.6-0.8-0.4l-3.7,3.1c-0.4,0.3-1-0.1-0.8-0.6l2.1-4.3
			c0.2-0.4-0.1-0.8-0.5-0.7l-4.6,0.7c-0.5,0.1-0.8-0.6-0.4-0.9l3.5-2.8c0.3-0.3,0.2-0.8-0.2-0.9L10.5,27c-0.5-0.1-0.6-0.8-0.1-1
			l4.9-1.4c0.4-0.1,0.5-0.6,0.2-0.9L11,20.2c-0.4-0.3-0.1-1,0.4-0.9l5.5,1.4c0.4,0.1,0.7-0.3,0.6-0.7l-1.9-4.7
			c-0.2-0.5,0.4-0.9,0.8-0.6l3.9,3.3c0.3,0.3,0.8,0.1,0.8-0.4l0-5.1C21.1,12.1,21.8,12,22,12.4z"/>
		<g>
			<g>
				<path class="st4" d="M24.4-24.2c7.9,0,14.7,4.1,17.8,10.1c-3.2,6-10,10.1-17.8,10.1c-7.9,0-14.7-4.1-17.8-10.1
					C9.7-20.1,16.5-24.2,24.4-24.2z"/>
				<circle class="st5" cx="24.6" cy="-14.1" r="9.9"/>
			</g>
			<g>
				<path class="st6" d="M26.6-14.6c-0.8-0.3-1.3-0.9-1.6-1.7L24.6-18l0,0l-0.5,1.7c-0.2,0.8-0.8,1.4-1.6,1.7l-1.3,0.5l0,0l1.3,0.5
					c0.8,0.3,1.3,0.9,1.6,1.7l0.5,1.7l0,0l0.5-1.7c0.2-0.8,0.8-1.4,1.6-1.7l1.3-0.5l0,0L26.6-14.6z"/>
			</g>
		</g>
	</g>
</g>
<circle class="st7" cx="25" cy="25" r="25"/>
</svg>
